<svg 
 xmlns="http://www.w3.org/2000/svg"
 xmlns:xlink="http://www.w3.org/1999/xlink"
 width="30px" height="30px">
<path fill-rule="evenodd"  fill="rgb(215, 223, 238)"
 d="M10.815,0.005 C13.780,-0.060 15.845,0.627 17.606,1.761 C17.673,1.777 17.739,1.794 17.806,1.811 C17.823,1.844 17.839,1.878 17.856,1.911 C17.889,1.911 17.922,1.911 17.956,1.911 C17.972,1.945 17.989,1.978 18.006,2.011 C18.039,2.011 18.072,2.011 18.105,2.011 C18.139,2.062 18.172,2.112 18.205,2.162 C18.239,2.162 18.272,2.162 18.305,2.162 C18.322,2.195 18.339,2.229 18.355,2.262 C18.388,2.262 18.422,2.262 18.455,2.262 C18.472,2.296 18.488,2.329 18.505,2.363 C18.555,2.379 18.605,2.396 18.655,2.413 C18.705,2.480 18.755,2.547 18.805,2.614 C18.838,2.614 18.871,2.614 18.904,2.614 C18.988,2.714 19.071,2.814 19.154,2.915 C19.187,2.915 19.221,2.915 19.254,2.915 C19.354,3.032 19.454,3.149 19.554,3.266 C19.720,3.416 19.887,3.567 20.053,3.717 C20.053,3.751 20.053,3.784 20.053,3.818 C20.086,3.834 20.120,3.851 20.153,3.868 C20.153,3.885 20.153,3.901 20.153,3.918 C20.253,4.002 20.353,4.085 20.453,4.169 C20.453,4.202 20.453,4.236 20.453,4.269 C20.502,4.303 20.552,4.336 20.602,4.369 C20.602,4.403 20.602,4.436 20.602,4.470 C20.669,4.520 20.736,4.570 20.802,4.620 C20.819,4.670 20.835,4.721 20.852,4.771 C20.885,4.788 20.919,4.804 20.952,4.821 C20.952,4.854 20.952,4.888 20.952,4.921 C20.985,4.938 21.019,4.955 21.052,4.972 C21.068,5.022 21.085,5.072 21.102,5.122 C21.118,5.122 21.135,5.122 21.152,5.122 C21.152,5.155 21.152,5.189 21.152,5.222 C21.185,5.239 21.218,5.256 21.252,5.273 C21.268,5.339 21.285,5.406 21.301,5.473 C21.335,5.490 21.368,5.507 21.401,5.523 C21.418,5.574 21.435,5.624 21.451,5.674 C21.468,5.674 21.485,5.674 21.501,5.674 C21.535,5.774 21.568,5.875 21.601,5.975 C21.618,5.975 21.634,5.975 21.651,5.975 C21.651,6.008 21.651,6.042 21.651,6.075 C21.668,6.075 21.684,6.075 21.701,6.075 C21.701,6.109 21.701,6.142 21.701,6.176 C21.734,6.192 21.768,6.209 21.801,6.226 C21.801,6.259 21.801,6.293 21.801,6.326 C21.818,6.326 21.834,6.326 21.851,6.326 C21.884,6.426 21.917,6.527 21.951,6.627 C21.967,6.627 21.984,6.627 22.001,6.627 C22.001,6.677 22.001,6.727 22.001,6.778 C22.017,6.778 22.034,6.778 22.051,6.778 C22.067,6.845 22.084,6.911 22.100,6.978 C22.117,6.978 22.134,6.978 22.150,6.978 C22.150,7.028 22.150,7.079 22.150,7.129 C22.167,7.129 22.184,7.129 22.200,7.129 C22.217,7.196 22.234,7.263 22.250,7.330 C22.267,7.330 22.284,7.330 22.300,7.330 C22.317,7.430 22.334,7.530 22.350,7.631 C22.367,7.631 22.383,7.631 22.400,7.631 C22.400,7.681 22.400,7.731 22.400,7.781 C22.417,7.781 22.433,7.781 22.450,7.781 C22.450,7.831 22.450,7.881 22.450,7.932 C22.467,7.932 22.483,7.932 22.500,7.932 C22.500,7.982 22.500,8.032 22.500,8.082 C22.517,8.082 22.533,8.082 22.550,8.082 C22.550,8.132 22.550,8.182 22.550,8.233 C22.567,8.233 22.583,8.233 22.600,8.233 C22.600,8.283 22.600,8.333 22.600,8.383 C22.617,8.383 22.633,8.383 22.650,8.383 C22.650,8.450 22.650,8.517 22.650,8.584 C22.666,8.584 22.683,8.584 22.700,8.584 C22.700,8.651 22.700,8.718 22.700,8.784 C22.716,8.784 22.733,8.784 22.750,8.784 C22.750,8.868 22.750,8.952 22.750,9.035 C22.766,9.035 22.783,9.035 22.800,9.035 C22.800,9.102 22.800,9.169 22.800,9.236 C22.816,9.236 22.833,9.236 22.850,9.236 C22.850,9.320 22.850,9.403 22.850,9.487 C22.866,9.487 22.883,9.487 22.900,9.487 C22.900,9.604 22.900,9.721 22.900,9.838 C22.916,9.838 22.933,9.838 22.949,9.838 C22.966,10.139 22.983,10.440 22.999,10.741 C23.016,10.741 23.033,10.741 23.049,10.741 C23.049,10.908 23.049,11.076 23.049,11.243 C23.050,11.629 23.088,12.143 22.999,12.447 C22.999,12.597 22.999,12.748 22.999,12.898 C22.990,13.006 22.927,13.259 22.900,13.350 C22.900,13.450 22.900,13.551 22.900,13.651 C22.883,13.651 22.866,13.651 22.850,13.651 C22.833,13.818 22.816,13.985 22.800,14.153 C22.580,14.835 22.410,15.570 22.100,16.159 C22.051,16.310 22.001,16.460 21.951,16.611 C21.934,16.611 21.917,16.611 21.901,16.611 C21.867,16.711 21.834,16.812 21.801,16.912 C21.784,16.912 21.768,16.912 21.751,16.912 C21.751,16.945 21.751,16.979 21.751,17.012 C21.718,17.029 21.684,17.046 21.651,17.062 C21.651,17.096 21.651,17.129 21.651,17.163 C21.634,17.163 21.618,17.163 21.601,17.163 C21.601,17.196 21.601,17.230 21.601,17.263 C21.584,17.263 21.568,17.263 21.551,17.263 C21.551,17.297 21.551,17.330 21.551,17.363 C21.535,17.363 21.518,17.363 21.501,17.363 C21.501,17.397 21.501,17.430 21.501,17.464 C21.468,17.481 21.435,17.497 21.401,17.514 C21.385,17.564 21.368,17.614 21.351,17.664 C21.368,17.664 21.385,17.664 21.401,17.664 C21.601,17.882 21.801,18.099 22.001,18.317 C22.051,18.333 22.101,18.350 22.150,18.367 C22.633,18.869 23.116,19.370 23.599,19.872 C23.632,19.872 23.665,19.872 23.699,19.872 C23.915,20.106 24.131,20.340 24.348,20.574 C24.880,21.076 25.413,21.578 25.946,22.079 C26.229,22.380 26.512,22.682 26.795,22.982 C26.828,22.982 26.861,22.982 26.895,22.982 C26.994,23.100 27.094,23.217 27.194,23.334 C27.477,23.601 27.760,23.869 28.043,24.136 C28.160,24.270 28.276,24.404 28.393,24.538 C28.426,24.538 28.459,24.538 28.493,24.538 C28.642,24.705 28.792,24.872 28.942,25.039 C29.092,25.173 29.242,25.307 29.391,25.441 C29.391,25.474 29.391,25.508 29.391,25.541 C29.441,25.575 29.491,25.608 29.541,25.641 C29.558,25.708 29.574,25.775 29.591,25.842 C29.624,25.859 29.658,25.876 29.691,25.892 C29.691,25.943 29.691,25.993 29.691,26.043 C29.708,26.043 29.724,26.043 29.741,26.043 C29.758,26.110 29.774,26.177 29.791,26.244 C29.808,26.244 29.824,26.244 29.841,26.244 C29.841,26.294 29.841,26.344 29.841,26.394 C29.857,26.394 29.874,26.394 29.891,26.394 C29.907,26.545 29.924,26.695 29.941,26.846 C30.167,27.615 29.694,28.580 29.391,29.003 C29.292,29.086 29.192,29.170 29.092,29.254 C29.042,29.321 28.992,29.388 28.942,29.454 C28.909,29.454 28.875,29.454 28.842,29.454 C28.825,29.488 28.809,29.521 28.792,29.555 C28.759,29.555 28.726,29.555 28.692,29.555 C28.676,29.588 28.659,29.622 28.642,29.655 C28.493,29.705 28.343,29.755 28.193,29.806 C28.193,29.822 28.193,29.839 28.193,29.856 C28.160,29.856 28.126,29.856 28.093,29.856 C28.093,29.872 28.093,29.889 28.093,29.906 C28.026,29.906 27.960,29.906 27.893,29.906 C27.435,30.057 26.865,30.017 26.445,29.856 C26.395,29.856 26.345,29.856 26.295,29.856 C26.295,29.839 26.295,29.822 26.295,29.806 C26.195,29.772 26.095,29.739 25.996,29.705 C25.996,29.689 25.996,29.672 25.996,29.655 C25.929,29.638 25.862,29.622 25.796,29.605 C25.763,29.555 25.729,29.505 25.696,29.454 C25.663,29.454 25.629,29.454 25.596,29.454 C25.463,29.304 25.330,29.153 25.197,29.003 C24.790,28.707 24.496,28.349 24.148,27.999 C23.748,27.632 23.349,27.264 22.949,26.896 C22.489,26.434 22.086,25.930 21.551,25.541 C21.418,25.391 21.285,25.240 21.152,25.090 C20.869,24.822 20.586,24.554 20.303,24.287 C20.170,24.136 20.036,23.986 19.903,23.835 C19.870,23.835 19.837,23.835 19.803,23.835 C19.620,23.635 19.437,23.434 19.254,23.233 C18.988,22.983 18.721,22.732 18.455,22.481 C18.355,22.364 18.255,22.247 18.155,22.130 C18.105,22.113 18.056,22.096 18.006,22.079 C17.839,21.895 17.673,21.712 17.506,21.528 C17.411,21.500 17.437,21.559 17.406,21.578 C17.307,21.611 17.207,21.645 17.107,21.678 C17.107,21.695 17.107,21.712 17.107,21.728 C17.073,21.728 17.040,21.728 17.007,21.728 C16.990,21.762 16.974,21.795 16.957,21.829 C16.890,21.845 16.824,21.862 16.757,21.879 C16.757,21.895 16.757,21.912 16.757,21.929 C16.691,21.946 16.624,21.962 16.557,21.979 C16.557,21.996 16.557,22.013 16.557,22.029 C16.507,22.029 16.458,22.029 16.408,22.029 C16.408,22.046 16.408,22.063 16.408,22.079 C16.374,22.079 16.341,22.079 16.308,22.079 C16.308,22.096 16.308,22.113 16.308,22.130 C16.241,22.146 16.175,22.163 16.108,22.180 C16.108,22.196 16.108,22.213 16.108,22.230 C16.058,22.230 16.008,22.230 15.958,22.230 C15.958,22.247 15.958,22.263 15.958,22.280 C15.892,22.297 15.825,22.314 15.758,22.330 C15.758,22.347 15.758,22.364 15.758,22.380 C15.659,22.397 15.559,22.414 15.459,22.431 C15.459,22.447 15.459,22.464 15.459,22.481 C15.409,22.481 15.359,22.481 15.309,22.481 C15.309,22.498 15.309,22.514 15.309,22.531 C15.259,22.531 15.209,22.531 15.159,22.531 C15.159,22.548 15.159,22.564 15.159,22.581 C15.109,22.581 15.059,22.581 15.009,22.581 C15.009,22.598 15.009,22.615 15.009,22.631 C14.959,22.631 14.909,22.631 14.860,22.631 C14.860,22.648 14.860,22.665 14.860,22.681 C14.726,22.698 14.593,22.715 14.460,22.732 C14.460,22.748 14.460,22.765 14.460,22.782 C14.260,22.815 14.061,22.849 13.861,22.882 C13.861,22.899 13.861,22.916 13.861,22.932 C13.761,22.932 13.661,22.932 13.561,22.932 C13.561,22.949 13.561,22.966 13.561,22.982 C13.295,23.016 13.028,23.049 12.762,23.083 C12.612,23.083 12.463,23.083 12.313,23.083 C12.313,23.100 12.313,23.116 12.313,23.133 C12.059,23.204 10.954,23.136 10.765,23.083 C10.565,23.083 10.365,23.083 10.165,23.083 C10.165,23.066 10.165,23.049 10.165,23.033 C10.066,23.033 9.966,23.033 9.866,23.033 C9.866,23.016 9.866,22.999 9.866,22.982 C9.749,22.982 9.633,22.982 9.516,22.982 C9.516,22.966 9.516,22.949 9.516,22.932 C9.416,22.932 9.316,22.932 9.217,22.932 C8.634,22.765 8.051,22.598 7.469,22.431 C7.469,22.414 7.469,22.397 7.469,22.380 C7.436,22.380 7.402,22.380 7.369,22.380 C7.369,22.364 7.369,22.347 7.369,22.330 C7.319,22.330 7.269,22.330 7.219,22.330 C7.219,22.314 7.219,22.297 7.219,22.280 C7.153,22.263 7.086,22.247 7.019,22.230 C7.019,22.213 7.019,22.196 7.019,22.180 C6.969,22.180 6.919,22.180 6.870,22.180 C6.870,22.163 6.870,22.146 6.870,22.130 C6.803,22.113 6.736,22.096 6.670,22.079 C6.670,22.063 6.670,22.046 6.670,22.029 C6.587,22.013 6.503,21.996 6.420,21.979 C6.403,21.946 6.387,21.912 6.370,21.879 C6.337,21.879 6.304,21.879 6.270,21.879 C6.270,21.862 6.270,21.845 6.270,21.829 C6.237,21.829 6.204,21.829 6.170,21.829 C6.170,21.812 6.170,21.795 6.170,21.778 C6.137,21.778 6.104,21.778 6.071,21.778 C6.071,21.762 6.071,21.745 6.071,21.728 C6.037,21.728 6.004,21.728 5.971,21.728 C5.971,21.712 5.971,21.695 5.971,21.678 C5.937,21.678 5.904,21.678 5.871,21.678 C5.871,21.661 5.871,21.645 5.871,21.628 C5.837,21.628 5.804,21.628 5.771,21.628 C5.771,21.611 5.771,21.594 5.771,21.578 C5.738,21.578 5.704,21.578 5.671,21.578 C5.654,21.544 5.638,21.511 5.621,21.477 C5.588,21.477 5.555,21.477 5.521,21.477 C5.505,21.444 5.488,21.411 5.471,21.377 C5.438,21.377 5.405,21.377 5.371,21.377 C5.355,21.344 5.338,21.310 5.321,21.277 C5.255,21.260 5.188,21.243 5.122,21.227 C5.122,21.210 5.122,21.193 5.122,21.176 C5.072,21.160 5.022,21.143 4.972,21.126 C4.955,21.093 4.939,21.059 4.922,21.026 C4.889,21.026 4.855,21.026 4.822,21.026 C4.772,20.959 4.722,20.892 4.672,20.825 C4.639,20.825 4.606,20.825 4.572,20.825 C4.539,20.775 4.506,20.725 4.473,20.675 C4.439,20.675 4.406,20.675 4.373,20.675 C4.339,20.625 4.306,20.574 4.273,20.524 C4.239,20.524 4.206,20.524 4.173,20.524 C4.056,20.390 3.940,20.257 3.823,20.123 C3.790,20.123 3.757,20.123 3.723,20.123 C3.557,19.939 3.391,19.755 3.224,19.571 C3.124,19.487 3.024,19.404 2.924,19.320 C2.924,19.287 2.924,19.253 2.924,19.220 C2.825,19.136 2.725,19.053 2.625,18.969 C2.625,18.935 2.625,18.902 2.625,18.869 C2.558,18.818 2.492,18.768 2.425,18.718 C2.425,18.685 2.425,18.651 2.425,18.618 C2.375,18.584 2.325,18.551 2.275,18.517 C2.275,18.484 2.275,18.450 2.275,18.417 C2.225,18.384 2.175,18.350 2.125,18.317 C2.125,18.283 2.125,18.250 2.125,18.216 C2.092,18.200 2.059,18.183 2.026,18.166 C2.009,18.116 1.992,18.066 1.976,18.016 C1.959,18.016 1.942,18.016 1.926,18.016 C1.926,17.982 1.926,17.949 1.926,17.915 C1.892,17.899 1.859,17.882 1.826,17.865 C1.809,17.798 1.793,17.731 1.776,17.664 C1.743,17.648 1.709,17.631 1.676,17.614 C1.659,17.564 1.643,17.514 1.626,17.464 C1.609,17.464 1.593,17.464 1.576,17.464 C1.576,17.430 1.576,17.397 1.576,17.363 C1.560,17.363 1.543,17.363 1.526,17.363 C1.526,17.330 1.526,17.297 1.526,17.263 C1.510,17.263 1.493,17.263 1.476,17.263 C1.476,17.230 1.476,17.196 1.476,17.163 C1.460,17.163 1.443,17.163 1.426,17.163 C1.426,17.129 1.426,17.096 1.426,17.062 C1.393,17.046 1.360,17.029 1.326,17.012 C1.310,16.945 1.293,16.878 1.277,16.812 C1.260,16.812 1.243,16.812 1.227,16.812 C1.193,16.711 1.160,16.611 1.127,16.511 C1.110,16.511 1.093,16.511 1.077,16.511 C1.077,16.460 1.077,16.410 1.077,16.360 C1.060,16.360 1.043,16.360 1.027,16.360 C1.010,16.293 0.994,16.226 0.977,16.159 C0.960,16.159 0.944,16.159 0.927,16.159 C0.927,16.109 0.927,16.059 0.927,16.009 C0.910,16.009 0.894,16.009 0.877,16.009 C0.877,15.975 0.877,15.942 0.877,15.909 C0.860,15.909 0.844,15.909 0.827,15.909 C0.827,15.858 0.827,15.808 0.827,15.758 C0.810,15.758 0.794,15.758 0.777,15.758 C0.777,15.725 0.777,15.691 0.777,15.658 C0.761,15.658 0.744,15.658 0.727,15.658 C0.711,15.557 0.694,15.457 0.677,15.357 C0.661,15.357 0.644,15.357 0.627,15.357 C0.627,15.307 0.627,15.256 0.627,15.206 C0.611,15.206 0.594,15.206 0.577,15.206 C0.577,15.156 0.577,15.106 0.577,15.056 C0.561,15.056 0.544,15.056 0.527,15.056 C0.527,15.005 0.527,14.955 0.527,14.905 C0.511,14.905 0.494,14.905 0.478,14.905 C0.461,14.771 0.444,14.638 0.428,14.504 C0.411,14.504 0.394,14.504 0.378,14.504 C0.378,14.454 0.378,14.403 0.378,14.353 C0.361,14.353 0.344,14.353 0.328,14.353 C0.328,14.270 0.328,14.186 0.328,14.102 C0.258,13.874 0.195,13.536 0.128,13.300 C0.111,12.965 0.095,12.631 0.078,12.296 C0.061,12.296 0.045,12.296 0.028,12.296 C-0.040,12.049 0.027,11.023 0.078,10.841 C0.078,10.674 0.078,10.507 0.078,10.340 C0.078,10.323 0.078,10.306 0.078,10.290 C0.095,10.290 0.111,10.290 0.128,10.290 C0.128,10.156 0.128,10.022 0.128,9.888 C0.145,9.888 0.161,9.888 0.178,9.888 C0.178,9.788 0.178,9.687 0.178,9.587 C0.278,9.152 0.378,8.717 0.478,8.283 C0.494,8.283 0.511,8.283 0.527,8.283 C0.527,8.233 0.527,8.182 0.527,8.132 C0.544,8.132 0.561,8.132 0.577,8.132 C0.577,8.082 0.577,8.032 0.577,7.982 C0.594,7.982 0.611,7.982 0.627,7.982 C0.627,7.932 0.627,7.881 0.627,7.831 C0.644,7.831 0.661,7.831 0.677,7.831 C0.677,7.781 0.677,7.731 0.677,7.681 C0.694,7.681 0.711,7.681 0.727,7.681 C0.744,7.580 0.761,7.480 0.777,7.380 C0.794,7.380 0.810,7.380 0.827,7.380 C0.827,7.346 0.827,7.313 0.827,7.279 C0.844,7.279 0.860,7.279 0.877,7.279 C0.877,7.229 0.877,7.179 0.877,7.129 C0.894,7.129 0.910,7.129 0.927,7.129 C0.944,7.062 0.960,6.995 0.977,6.928 C0.994,6.928 1.010,6.928 1.027,6.928 C1.027,6.878 1.027,6.828 1.027,6.778 C1.043,6.778 1.060,6.778 1.077,6.778 C1.110,6.677 1.143,6.577 1.177,6.477 C1.193,6.477 1.210,6.477 1.227,6.477 C1.227,6.443 1.227,6.410 1.227,6.376 C1.243,6.376 1.260,6.376 1.277,6.376 C1.277,6.343 1.277,6.309 1.277,6.276 C1.293,6.276 1.310,6.276 1.326,6.276 C1.360,6.176 1.393,6.075 1.426,5.975 C1.460,5.958 1.493,5.941 1.526,5.925 C1.560,5.824 1.593,5.724 1.626,5.624 C1.659,5.607 1.693,5.590 1.726,5.574 C1.743,5.507 1.759,5.440 1.776,5.373 C1.809,5.356 1.842,5.339 1.876,5.323 C1.876,5.289 1.876,5.256 1.876,5.222 C1.892,5.222 1.909,5.222 1.926,5.222 C1.942,5.172 1.959,5.122 1.976,5.072 C2.009,5.055 2.042,5.038 2.076,5.022 C2.076,4.988 2.076,4.955 2.076,4.921 C2.125,4.888 2.175,4.854 2.225,4.821 C2.225,4.788 2.225,4.754 2.225,4.721 C2.259,4.704 2.292,4.687 2.325,4.670 C2.325,4.637 2.325,4.604 2.325,4.570 C2.359,4.553 2.392,4.537 2.425,4.520 C2.425,4.503 2.425,4.487 2.425,4.470 C2.458,4.453 2.492,4.436 2.525,4.420 C2.525,4.386 2.525,4.353 2.525,4.319 C2.608,4.252 2.691,4.186 2.775,4.119 C2.775,4.085 2.775,4.052 2.775,4.018 C2.875,3.935 2.974,3.851 3.074,3.767 C3.074,3.751 3.074,3.734 3.074,3.717 C3.108,3.701 3.141,3.684 3.174,3.667 C3.174,3.634 3.174,3.600 3.174,3.567 C3.207,3.550 3.241,3.533 3.274,3.517 C3.374,3.400 3.474,3.282 3.574,3.165 C3.607,3.165 3.640,3.165 3.674,3.165 C3.807,3.015 3.940,2.864 4.073,2.714 C4.106,2.714 4.140,2.714 4.173,2.714 C4.223,2.647 4.273,2.580 4.323,2.513 C4.356,2.513 4.389,2.513 4.423,2.513 C4.473,2.446 4.522,2.379 4.572,2.313 C4.606,2.313 4.639,2.313 4.672,2.313 C4.706,2.262 4.739,2.212 4.772,2.162 C4.805,2.162 4.839,2.162 4.872,2.162 C4.889,2.129 4.905,2.095 4.922,2.062 C4.955,2.062 4.989,2.062 5.022,2.062 C5.038,2.028 5.055,1.995 5.072,1.961 C5.105,1.961 5.138,1.961 5.172,1.961 C5.188,1.928 5.205,1.894 5.222,1.861 C5.255,1.861 5.288,1.861 5.321,1.861 C5.338,1.828 5.355,1.794 5.371,1.761 C5.438,1.744 5.505,1.727 5.571,1.710 C5.588,1.677 5.604,1.644 5.621,1.610 C5.688,1.593 5.754,1.577 5.821,1.560 C5.837,1.527 5.854,1.493 5.871,1.460 C5.904,1.460 5.937,1.460 5.971,1.460 C5.971,1.443 5.971,1.426 5.971,1.409 C6.004,1.409 6.037,1.409 6.071,1.409 C6.071,1.393 6.071,1.376 6.071,1.359 C6.104,1.359 6.137,1.359 6.170,1.359 C6.170,1.343 6.170,1.326 6.170,1.309 C6.204,1.309 6.237,1.309 6.270,1.309 C6.270,1.292 6.270,1.276 6.270,1.259 C6.304,1.259 6.337,1.259 6.370,1.259 C6.370,1.242 6.370,1.226 6.370,1.209 C6.403,1.209 6.437,1.209 6.470,1.209 C6.470,1.192 6.470,1.175 6.470,1.159 C6.570,1.125 6.670,1.092 6.770,1.058 C6.770,1.042 6.770,1.025 6.770,1.008 C6.853,0.991 6.936,0.975 7.019,0.958 C7.019,0.941 7.019,0.924 7.019,0.908 C7.053,0.908 7.086,0.908 7.119,0.908 C7.119,0.891 7.119,0.874 7.119,0.858 C7.169,0.858 7.219,0.858 7.269,0.858 C7.269,0.841 7.269,0.824 7.269,0.807 C7.302,0.807 7.336,0.807 7.369,0.807 C7.369,0.791 7.369,0.774 7.369,0.757 C7.469,0.741 7.569,0.724 7.669,0.707 C7.669,0.690 7.669,0.674 7.669,0.657 C7.702,0.657 7.735,0.657 7.768,0.657 C7.768,0.640 7.768,0.623 7.768,0.607 C7.835,0.607 7.902,0.607 7.968,0.607 C7.968,0.590 7.968,0.573 7.968,0.557 C8.018,0.557 8.068,0.557 8.118,0.557 C8.118,0.540 8.118,0.523 8.118,0.506 C8.168,0.506 8.218,0.506 8.268,0.506 C8.268,0.490 8.268,0.473 8.268,0.456 C8.318,0.456 8.368,0.456 8.418,0.456 C8.418,0.440 8.418,0.423 8.418,0.406 C8.484,0.406 8.551,0.406 8.617,0.406 C8.617,0.389 8.617,0.373 8.617,0.356 C8.684,0.356 8.751,0.356 8.817,0.356 C8.817,0.339 8.817,0.322 8.817,0.306 C8.900,0.306 8.984,0.306 9.067,0.306 C9.067,0.289 9.067,0.272 9.067,0.256 C9.133,0.256 9.200,0.256 9.267,0.256 C9.267,0.239 9.267,0.222 9.267,0.205 C9.366,0.205 9.466,0.205 9.566,0.205 C9.566,0.189 9.566,0.172 9.566,0.155 C9.799,0.138 10.032,0.122 10.265,0.105 C10.265,0.088 10.265,0.072 10.265,0.055 C10.452,0.002 10.694,0.111 10.815,0.005 ZM10.765,4.670 C10.622,4.794 10.377,4.705 10.165,4.771 C10.165,4.788 10.165,4.804 10.165,4.821 C10.099,4.821 10.032,4.821 9.966,4.821 C9.966,4.838 9.966,4.854 9.966,4.871 C9.899,4.871 9.832,4.871 9.766,4.871 C9.766,4.888 9.766,4.905 9.766,4.921 C9.699,4.921 9.633,4.921 9.566,4.921 C9.566,4.938 9.566,4.955 9.566,4.972 C9.516,4.972 9.466,4.972 9.416,4.972 C9.416,4.988 9.416,5.005 9.416,5.022 C9.366,5.022 9.316,5.022 9.267,5.022 C9.267,5.038 9.267,5.055 9.267,5.072 C9.217,5.072 9.167,5.072 9.117,5.072 C9.117,5.089 9.117,5.105 9.117,5.122 C9.083,5.122 9.050,5.122 9.017,5.122 C9.017,5.139 9.017,5.155 9.017,5.172 C8.934,5.189 8.850,5.206 8.767,5.222 C8.767,5.239 8.767,5.256 8.767,5.273 C8.734,5.273 8.701,5.273 8.667,5.273 C8.667,5.289 8.667,5.306 8.667,5.323 C8.634,5.323 8.601,5.323 8.567,5.323 C8.567,5.339 8.567,5.356 8.567,5.373 C8.534,5.373 8.501,5.373 8.468,5.373 C8.468,5.390 8.468,5.406 8.468,5.423 C8.434,5.423 8.401,5.423 8.368,5.423 C8.368,5.440 8.368,5.456 8.368,5.473 C8.301,5.490 8.234,5.507 8.168,5.523 C8.151,5.557 8.135,5.590 8.118,5.624 C8.051,5.640 7.985,5.657 7.918,5.674 C7.902,5.707 7.885,5.741 7.868,5.774 C7.835,5.774 7.802,5.774 7.768,5.774 C7.752,5.808 7.735,5.841 7.718,5.875 C7.685,5.875 7.652,5.875 7.619,5.875 C7.602,5.908 7.585,5.941 7.569,5.975 C7.535,5.975 7.502,5.975 7.469,5.975 C7.436,6.025 7.402,6.075 7.369,6.125 C7.336,6.125 7.302,6.125 7.269,6.125 C7.186,6.226 7.103,6.326 7.019,6.426 C6.986,6.426 6.953,6.426 6.919,6.426 C6.803,6.560 6.686,6.694 6.570,6.828 C6.520,6.861 6.470,6.895 6.420,6.928 C6.420,6.962 6.420,6.995 6.420,7.028 C6.320,7.112 6.220,7.196 6.120,7.279 C6.120,7.313 6.120,7.346 6.120,7.380 C6.087,7.396 6.054,7.413 6.021,7.430 C6.021,7.463 6.021,7.497 6.021,7.530 C5.971,7.564 5.921,7.597 5.871,7.631 C5.871,7.664 5.871,7.697 5.871,7.731 C5.837,7.748 5.804,7.764 5.771,7.781 C5.771,7.814 5.771,7.848 5.771,7.881 C5.738,7.898 5.704,7.915 5.671,7.932 C5.654,7.998 5.638,8.065 5.621,8.132 C5.588,8.149 5.555,8.166 5.521,8.182 C5.488,8.283 5.455,8.383 5.421,8.483 C5.405,8.483 5.388,8.483 5.371,8.483 C5.371,8.517 5.371,8.550 5.371,8.584 C5.355,8.584 5.338,8.584 5.321,8.584 C5.288,8.684 5.255,8.784 5.222,8.885 C5.205,8.885 5.188,8.885 5.172,8.885 C5.155,8.985 5.138,9.085 5.122,9.186 C5.105,9.186 5.088,9.186 5.072,9.186 C5.072,9.219 5.072,9.253 5.072,9.286 C5.055,9.286 5.038,9.286 5.022,9.286 C5.022,9.336 5.022,9.386 5.022,9.437 C5.005,9.437 4.989,9.437 4.972,9.437 C4.972,9.487 4.972,9.537 4.972,9.587 C4.955,9.587 4.939,9.587 4.922,9.587 C4.922,9.654 4.922,9.721 4.922,9.788 C4.905,9.788 4.889,9.788 4.872,9.788 C4.872,9.855 4.872,9.922 4.872,9.989 C4.855,9.989 4.839,9.989 4.822,9.989 C4.822,10.055 4.822,10.122 4.822,10.189 C4.805,10.189 4.789,10.189 4.772,10.189 C4.772,10.290 4.772,10.390 4.772,10.490 C4.756,10.490 4.739,10.490 4.722,10.490 C4.722,10.607 4.722,10.724 4.722,10.841 C4.520,11.562 4.743,12.818 4.922,13.350 C4.922,13.417 4.922,13.484 4.922,13.551 C4.939,13.551 4.955,13.551 4.972,13.551 C4.989,13.651 5.005,13.751 5.022,13.852 C5.038,13.852 5.055,13.852 5.072,13.852 C5.072,13.885 5.072,13.918 5.072,13.952 C5.088,13.952 5.105,13.952 5.122,13.952 C5.138,14.052 5.155,14.153 5.172,14.253 C5.188,14.253 5.205,14.253 5.222,14.253 C5.255,14.353 5.288,14.454 5.321,14.554 C5.338,14.554 5.355,14.554 5.371,14.554 C5.371,14.587 5.371,14.621 5.371,14.654 C5.388,14.654 5.405,14.654 5.421,14.654 C5.455,14.755 5.488,14.855 5.521,14.955 C5.555,14.972 5.588,14.989 5.621,15.005 C5.638,15.072 5.654,15.139 5.671,15.206 C5.704,15.223 5.738,15.240 5.771,15.256 C5.771,15.290 5.771,15.323 5.771,15.357 C5.804,15.373 5.837,15.390 5.871,15.407 C5.871,15.440 5.871,15.474 5.871,15.507 C5.921,15.541 5.971,15.574 6.021,15.608 C6.021,15.641 6.021,15.674 6.021,15.708 C6.054,15.725 6.087,15.741 6.120,15.758 C6.120,15.791 6.120,15.825 6.120,15.858 C6.237,15.959 6.354,16.059 6.470,16.159 C6.470,16.193 6.470,16.226 6.470,16.260 C6.587,16.360 6.703,16.460 6.820,16.561 C6.853,16.611 6.886,16.661 6.919,16.711 C6.953,16.711 6.986,16.711 7.019,16.711 C7.103,16.812 7.186,16.912 7.269,17.012 C7.319,17.029 7.369,17.046 7.419,17.062 C7.435,17.096 7.452,17.129 7.469,17.163 C7.502,17.163 7.535,17.163 7.569,17.163 C7.585,17.196 7.602,17.230 7.619,17.263 C7.669,17.280 7.718,17.297 7.768,17.313 C7.768,17.330 7.768,17.347 7.768,17.363 C7.802,17.363 7.835,17.363 7.868,17.363 C7.885,17.397 7.902,17.430 7.918,17.464 C7.985,17.481 8.051,17.497 8.118,17.514 C8.135,17.547 8.151,17.581 8.168,17.614 C8.268,17.648 8.368,17.681 8.468,17.715 C8.468,17.731 8.468,17.748 8.468,17.765 C8.501,17.765 8.534,17.765 8.567,17.765 C8.567,17.782 8.567,17.798 8.567,17.815 C8.667,17.848 8.767,17.882 8.867,17.915 C8.867,17.932 8.867,17.949 8.867,17.966 C8.917,17.966 8.967,17.966 9.017,17.966 C9.687,18.260 10.441,18.467 11.414,18.467 C11.713,18.467 12.013,18.467 12.313,18.467 C12.313,18.450 12.313,18.434 12.313,18.417 C12.429,18.417 12.546,18.417 12.662,18.417 C12.662,18.400 12.662,18.384 12.662,18.367 C12.746,18.367 12.829,18.367 12.912,18.367 C12.912,18.350 12.912,18.333 12.912,18.317 C12.995,18.317 13.078,18.317 13.162,18.317 C13.162,18.300 13.162,18.283 13.162,18.267 C13.228,18.267 13.295,18.267 13.361,18.267 C13.361,18.250 13.361,18.233 13.361,18.216 C13.411,18.216 13.461,18.216 13.511,18.216 C13.511,18.200 13.511,18.183 13.511,18.166 C13.561,18.166 13.611,18.166 13.661,18.166 C13.661,18.149 13.661,18.133 13.661,18.116 C13.711,18.116 13.761,18.116 13.811,18.116 C13.811,18.099 13.811,18.083 13.811,18.066 C13.911,18.049 14.011,18.032 14.110,18.016 C14.110,17.999 14.110,17.982 14.110,17.966 C14.210,17.932 14.310,17.899 14.410,17.865 C14.410,17.848 14.410,17.832 14.410,17.815 C14.527,17.782 14.643,17.748 14.760,17.715 C14.776,17.681 14.793,17.648 14.810,17.614 C14.876,17.598 14.943,17.581 15.009,17.564 C15.026,17.531 15.043,17.497 15.059,17.464 C15.093,17.464 15.126,17.464 15.159,17.464 C15.159,17.447 15.159,17.430 15.159,17.414 C15.192,17.414 15.226,17.414 15.259,17.414 C15.276,17.380 15.292,17.347 15.309,17.313 C15.342,17.313 15.376,17.313 15.409,17.313 C15.426,17.280 15.442,17.246 15.459,17.213 C15.492,17.213 15.525,17.213 15.559,17.213 C15.592,17.163 15.625,17.113 15.659,17.062 C15.692,17.062 15.725,17.062 15.758,17.062 C15.808,16.996 15.858,16.929 15.908,16.862 C15.942,16.862 15.975,16.862 16.008,16.862 C16.125,16.728 16.241,16.594 16.358,16.460 C16.524,16.310 16.691,16.159 16.857,16.009 C16.857,15.975 16.857,15.942 16.857,15.909 C16.907,15.875 16.957,15.842 17.007,15.808 C17.007,15.775 17.007,15.741 17.007,15.708 C17.057,15.674 17.107,15.641 17.157,15.608 C17.173,15.557 17.190,15.507 17.207,15.457 C17.240,15.440 17.273,15.424 17.306,15.407 C17.306,15.373 17.306,15.340 17.306,15.307 C17.323,15.307 17.340,15.307 17.356,15.307 C17.356,15.273 17.356,15.240 17.356,15.206 C17.390,15.189 17.423,15.173 17.456,15.156 C17.473,15.089 17.490,15.022 17.506,14.955 C17.540,14.939 17.573,14.922 17.606,14.905 C17.623,14.838 17.639,14.771 17.656,14.704 C17.673,14.704 17.689,14.704 17.706,14.704 C17.739,14.604 17.773,14.504 17.806,14.403 C17.823,14.403 17.839,14.403 17.856,14.403 C17.856,14.353 17.856,14.303 17.856,14.253 C17.872,14.253 17.889,14.253 17.906,14.253 C17.922,14.186 17.939,14.119 17.956,14.052 C17.972,14.052 17.989,14.052 18.006,14.052 C18.122,13.634 18.239,13.216 18.355,12.798 C18.372,12.464 18.388,12.129 18.405,11.795 C18.422,11.795 18.438,11.795 18.455,11.795 C18.503,11.622 18.422,11.394 18.405,11.293 C18.405,11.092 18.405,10.892 18.405,10.691 C18.388,10.691 18.372,10.691 18.355,10.691 C18.355,10.574 18.355,10.457 18.355,10.340 C18.339,10.340 18.322,10.340 18.305,10.340 C18.305,10.256 18.305,10.172 18.305,10.089 C18.289,10.089 18.272,10.089 18.255,10.089 C18.255,10.022 18.255,9.955 18.255,9.888 C18.239,9.888 18.222,9.888 18.205,9.888 C18.205,9.821 18.205,9.754 18.205,9.687 C18.189,9.687 18.172,9.687 18.155,9.687 C18.155,9.637 18.155,9.587 18.155,9.537 C18.139,9.537 18.122,9.537 18.105,9.537 C18.089,9.437 18.072,9.336 18.056,9.236 C18.039,9.236 18.022,9.236 18.006,9.236 C18.006,9.186 18.006,9.136 18.006,9.085 C17.989,9.085 17.972,9.085 17.956,9.085 C17.939,9.019 17.922,8.952 17.906,8.885 C17.889,8.885 17.872,8.885 17.856,8.885 C17.856,8.835 17.856,8.784 17.856,8.734 C17.839,8.734 17.823,8.734 17.806,8.734 C17.773,8.634 17.739,8.534 17.706,8.433 C17.689,8.433 17.673,8.433 17.656,8.433 C17.639,8.366 17.623,8.299 17.606,8.233 C17.573,8.216 17.540,8.199 17.506,8.182 C17.490,8.116 17.473,8.049 17.456,7.982 C17.423,7.965 17.390,7.948 17.356,7.932 C17.356,7.898 17.356,7.865 17.356,7.831 C17.340,7.831 17.323,7.831 17.306,7.831 C17.306,7.798 17.306,7.764 17.306,7.731 C17.257,7.697 17.207,7.664 17.157,7.631 C17.157,7.597 17.157,7.564 17.157,7.530 C17.107,7.497 17.057,7.463 17.007,7.430 C17.007,7.396 17.007,7.363 17.007,7.330 C16.957,7.296 16.907,7.263 16.857,7.229 C16.857,7.196 16.857,7.162 16.857,7.129 C16.691,6.978 16.524,6.828 16.358,6.677 C16.225,6.527 16.091,6.376 15.958,6.226 C15.925,6.226 15.892,6.226 15.858,6.226 C15.825,6.176 15.792,6.125 15.758,6.075 C15.725,6.075 15.692,6.075 15.659,6.075 C15.625,6.025 15.592,5.975 15.559,5.925 C15.525,5.925 15.492,5.925 15.459,5.925 C15.426,5.875 15.392,5.824 15.359,5.774 C15.326,5.774 15.292,5.774 15.259,5.774 C15.259,5.758 15.259,5.741 15.259,5.724 C15.226,5.724 15.192,5.724 15.159,5.724 C15.143,5.691 15.126,5.657 15.109,5.624 C15.009,5.590 14.909,5.557 14.810,5.523 C14.793,5.490 14.776,5.456 14.760,5.423 C14.726,5.423 14.693,5.423 14.660,5.423 C14.660,5.406 14.660,5.390 14.660,5.373 C14.627,5.373 14.593,5.373 14.560,5.373 C14.560,5.356 14.560,5.339 14.560,5.323 C14.510,5.323 14.460,5.323 14.410,5.323 C14.410,5.306 14.410,5.289 14.410,5.273 C14.377,5.273 14.344,5.273 14.310,5.273 C14.310,5.256 14.310,5.239 14.310,5.222 C14.244,5.206 14.177,5.189 14.110,5.172 C14.110,5.155 14.110,5.139 14.110,5.122 C14.011,5.105 13.911,5.089 13.811,5.072 C13.811,5.055 13.811,5.038 13.811,5.022 C13.761,5.022 13.711,5.022 13.661,5.022 C13.661,5.005 13.661,4.988 13.661,4.972 C13.628,4.972 13.594,4.972 13.561,4.972 C13.561,4.955 13.561,4.938 13.561,4.921 C13.495,4.921 13.428,4.921 13.361,4.921 C13.361,4.905 13.361,4.888 13.361,4.871 C13.295,4.871 13.228,4.871 13.162,4.871 C13.162,4.854 13.162,4.838 13.162,4.821 C13.095,4.821 13.028,4.821 12.962,4.821 C12.962,4.804 12.962,4.788 12.962,4.771 C12.862,4.771 12.762,4.771 12.662,4.771 C12.165,4.625 11.408,4.671 10.765,4.670 Z"/>
</svg>