<svg 
 xmlns="http://www.w3.org/2000/svg"
 xmlns:xlink="http://www.w3.org/1999/xlink"
 width="28px" height="18px">
<path fill-rule="evenodd"  fill="rgb(229, 229, 229)"
 d="M-0.000,0.027 C1.991,0.027 3.982,0.027 5.973,0.027 C7.025,0.026 8.498,-0.086 9.336,0.160 C9.571,0.190 9.807,0.220 10.043,0.250 C10.043,0.265 10.043,0.280 10.043,0.294 C10.088,0.294 10.132,0.294 10.176,0.294 C10.176,0.309 10.176,0.324 10.176,0.339 C10.220,0.339 10.265,0.339 10.309,0.339 C10.309,0.354 10.309,0.369 10.309,0.384 C10.353,0.384 10.397,0.384 10.442,0.384 C10.442,0.399 10.442,0.414 10.442,0.428 C10.486,0.428 10.530,0.428 10.574,0.428 C10.574,0.443 10.574,0.458 10.574,0.473 C10.619,0.473 10.663,0.473 10.707,0.473 C10.707,0.488 10.707,0.503 10.707,0.518 C10.796,0.548 10.884,0.577 10.973,0.607 C10.973,0.622 10.973,0.637 10.973,0.652 C11.002,0.652 11.032,0.652 11.061,0.652 C11.061,0.667 11.061,0.682 11.061,0.696 C11.091,0.696 11.120,0.696 11.150,0.696 C11.150,0.711 11.150,0.726 11.150,0.741 C11.238,0.771 11.327,0.801 11.415,0.830 C11.444,0.875 11.474,0.920 11.503,0.964 C11.548,0.979 11.592,0.994 11.636,1.009 C11.636,1.024 11.636,1.039 11.636,1.054 C11.666,1.054 11.695,1.054 11.725,1.054 C11.784,1.128 11.843,1.203 11.902,1.277 C11.931,1.277 11.961,1.277 11.990,1.277 C12.049,1.351 12.108,1.426 12.167,1.500 C12.197,1.515 12.226,1.530 12.256,1.545 C12.256,1.575 12.256,1.604 12.256,1.634 C12.329,1.694 12.403,1.753 12.477,1.813 C12.477,1.843 12.477,1.872 12.477,1.902 C12.506,1.917 12.536,1.932 12.565,1.947 C12.580,1.992 12.595,2.036 12.610,2.081 C12.624,2.081 12.639,2.081 12.654,2.081 C12.669,2.140 12.683,2.200 12.698,2.260 C12.713,2.260 12.728,2.260 12.742,2.260 C12.742,2.289 12.742,2.319 12.742,2.349 C12.757,2.349 12.772,2.349 12.787,2.349 C12.816,2.438 12.846,2.527 12.875,2.617 C12.890,2.617 12.905,2.617 12.919,2.617 C12.919,2.661 12.919,2.706 12.919,2.751 C12.934,2.751 12.949,2.751 12.964,2.751 C12.964,2.795 12.964,2.840 12.964,2.885 C12.978,2.885 12.993,2.885 13.008,2.885 C13.008,2.929 13.008,2.974 13.008,3.019 C13.023,3.019 13.037,3.019 13.052,3.019 C13.052,3.063 13.052,3.108 13.052,3.153 C13.067,3.153 13.082,3.153 13.096,3.153 C13.096,3.227 13.096,3.302 13.096,3.376 C13.111,3.376 13.126,3.376 13.141,3.376 C13.141,3.450 13.141,3.525 13.141,3.599 C13.155,3.599 13.170,3.599 13.185,3.599 C13.185,3.748 13.185,3.897 13.185,4.046 C13.200,4.046 13.214,4.046 13.229,4.046 C13.303,4.314 13.195,5.110 13.141,5.296 C13.141,5.386 13.141,5.475 13.141,5.564 C13.126,5.564 13.111,5.564 13.096,5.564 C13.096,5.609 13.096,5.654 13.096,5.698 C13.082,5.698 13.067,5.698 13.052,5.698 C13.052,5.743 13.052,5.788 13.052,5.832 C13.037,5.832 13.023,5.832 13.008,5.832 C13.008,5.877 13.008,5.922 13.008,5.966 C12.993,5.966 12.978,5.966 12.964,5.966 C12.964,6.011 12.964,6.056 12.964,6.100 C12.949,6.100 12.934,6.100 12.919,6.100 C12.919,6.130 12.919,6.160 12.919,6.190 C12.905,6.190 12.890,6.190 12.875,6.190 C12.860,6.264 12.846,6.338 12.831,6.413 C12.801,6.428 12.772,6.443 12.742,6.458 C12.728,6.517 12.713,6.577 12.698,6.636 C12.669,6.651 12.639,6.666 12.610,6.681 C12.610,6.711 12.610,6.740 12.610,6.770 C12.551,6.815 12.492,6.859 12.433,6.904 C12.433,6.934 12.433,6.964 12.433,6.993 C12.344,7.068 12.256,7.142 12.167,7.217 C12.152,7.247 12.138,7.276 12.123,7.306 C12.093,7.306 12.064,7.306 12.034,7.306 C12.005,7.351 11.975,7.395 11.946,7.440 C11.916,7.440 11.887,7.440 11.857,7.440 C11.828,7.485 11.798,7.529 11.769,7.574 C11.739,7.574 11.710,7.574 11.680,7.574 C11.666,7.604 11.651,7.634 11.636,7.663 C11.577,7.678 11.518,7.693 11.459,7.708 C11.369,7.758 11.306,7.834 11.194,7.887 C11.194,7.902 11.194,7.916 11.194,7.931 C11.371,7.991 11.548,8.050 11.725,8.110 C11.725,8.125 11.725,8.140 11.725,8.155 C11.754,8.155 11.784,8.155 11.813,8.155 C11.828,8.184 11.843,8.214 11.857,8.244 C11.916,8.259 11.975,8.274 12.034,8.289 C12.049,8.318 12.064,8.348 12.079,8.378 C12.108,8.378 12.138,8.378 12.167,8.378 C12.182,8.408 12.197,8.437 12.211,8.467 C12.241,8.467 12.270,8.467 12.300,8.467 C12.388,8.571 12.477,8.676 12.565,8.780 C12.595,8.780 12.624,8.780 12.654,8.780 C12.698,8.839 12.742,8.899 12.787,8.958 C12.801,8.958 12.816,8.958 12.831,8.958 C12.831,8.988 12.831,9.018 12.831,9.048 C12.875,9.078 12.919,9.107 12.964,9.137 C12.978,9.182 12.993,9.226 13.008,9.271 C13.037,9.286 13.067,9.301 13.096,9.316 C13.126,9.405 13.155,9.494 13.185,9.584 C13.214,9.599 13.244,9.613 13.273,9.628 C13.273,9.658 13.273,9.688 13.273,9.718 C13.288,9.718 13.303,9.718 13.317,9.718 C13.347,9.807 13.376,9.896 13.406,9.986 C13.421,9.986 13.435,9.986 13.450,9.986 C13.450,10.030 13.450,10.075 13.450,10.120 C13.465,10.120 13.480,10.120 13.494,10.120 C13.494,10.164 13.494,10.209 13.494,10.254 C13.509,10.254 13.524,10.254 13.539,10.254 C13.539,10.298 13.539,10.343 13.539,10.388 C13.553,10.388 13.568,10.388 13.583,10.388 C13.583,10.432 13.583,10.477 13.583,10.522 C13.598,10.522 13.612,10.522 13.627,10.522 C13.627,10.596 13.627,10.670 13.627,10.745 C13.642,10.745 13.657,10.745 13.671,10.745 C13.671,10.819 13.671,10.894 13.671,10.968 C13.686,10.968 13.701,10.968 13.716,10.968 C13.716,11.087 13.716,11.206 13.716,11.325 C13.730,11.325 13.745,11.325 13.760,11.325 C13.824,11.557 13.763,12.230 13.716,12.397 C13.716,12.516 13.716,12.635 13.716,12.755 C13.612,13.127 13.509,13.499 13.406,13.871 C13.391,13.871 13.376,13.871 13.362,13.871 C13.332,13.960 13.303,14.050 13.273,14.139 C13.259,14.139 13.244,14.139 13.229,14.139 C13.229,14.169 13.229,14.199 13.229,14.228 C13.214,14.228 13.200,14.228 13.185,14.228 C13.155,14.318 13.126,14.407 13.096,14.496 C13.067,14.511 13.037,14.526 13.008,14.541 C13.008,14.571 13.008,14.600 13.008,14.630 C12.978,14.645 12.949,14.660 12.919,14.675 C12.905,14.734 12.890,14.794 12.875,14.854 C12.831,14.883 12.787,14.913 12.742,14.943 C12.742,14.973 12.742,15.002 12.742,15.032 C12.683,15.077 12.624,15.122 12.565,15.166 C12.565,15.196 12.565,15.226 12.565,15.255 C12.447,15.360 12.329,15.464 12.211,15.568 C12.167,15.628 12.123,15.687 12.079,15.747 C12.049,15.747 12.020,15.747 11.990,15.747 C11.946,15.806 11.902,15.866 11.857,15.925 C11.828,15.925 11.798,15.925 11.769,15.925 C11.754,15.955 11.739,15.985 11.725,16.015 C11.680,16.030 11.636,16.044 11.592,16.059 C11.592,16.074 11.592,16.089 11.592,16.104 C11.562,16.104 11.533,16.104 11.503,16.104 C11.489,16.134 11.474,16.164 11.459,16.193 C11.430,16.193 11.400,16.193 11.371,16.193 C11.371,16.208 11.371,16.223 11.371,16.238 C11.341,16.238 11.312,16.238 11.282,16.238 C11.282,16.253 11.282,16.268 11.282,16.283 C11.253,16.283 11.223,16.283 11.194,16.283 C11.194,16.298 11.194,16.312 11.194,16.327 C11.164,16.327 11.135,16.327 11.105,16.327 C11.105,16.342 11.105,16.357 11.105,16.372 C11.076,16.372 11.046,16.372 11.017,16.372 C11.002,16.402 10.987,16.432 10.973,16.461 C10.928,16.461 10.884,16.461 10.840,16.461 C10.840,16.476 10.840,16.491 10.840,16.506 C10.796,16.506 10.751,16.506 10.707,16.506 C10.707,16.521 10.707,16.536 10.707,16.551 C10.663,16.551 10.619,16.551 10.574,16.551 C10.574,16.565 10.574,16.580 10.574,16.595 C10.545,16.595 10.515,16.595 10.486,16.595 C10.486,16.610 10.486,16.625 10.486,16.640 C10.427,16.640 10.368,16.640 10.309,16.640 C9.156,17.056 7.535,16.997 5.973,16.997 C3.982,16.997 1.991,16.997 -0.000,16.997 C-0.000,11.341 -0.000,5.683 -0.000,0.027 ZM17.609,0.741 C19.865,0.741 22.122,0.741 24.379,0.741 C24.379,1.307 24.379,1.873 24.379,2.438 C22.122,2.438 19.865,2.438 17.609,2.438 C17.609,1.873 17.609,1.307 17.609,0.741 ZM3.893,2.974 C3.893,4.224 3.893,5.475 3.893,6.725 C4.705,6.725 5.516,6.725 6.327,6.725 C6.721,6.725 7.247,6.772 7.566,6.681 C7.743,6.681 7.920,6.681 8.097,6.681 C8.347,6.621 8.598,6.562 8.849,6.502 C8.864,6.472 8.878,6.443 8.893,6.413 C8.923,6.413 8.952,6.413 8.982,6.413 C8.982,6.398 8.982,6.383 8.982,6.368 C9.011,6.368 9.041,6.368 9.070,6.368 C9.070,6.353 9.070,6.338 9.070,6.324 C9.114,6.324 9.159,6.324 9.203,6.324 C9.218,6.294 9.232,6.264 9.247,6.234 C9.277,6.234 9.306,6.234 9.336,6.234 C9.380,6.175 9.424,6.115 9.468,6.056 C9.498,6.041 9.527,6.026 9.557,6.011 C9.557,5.981 9.557,5.951 9.557,5.922 C9.586,5.907 9.616,5.892 9.645,5.877 C9.645,5.847 9.645,5.817 9.645,5.788 C9.660,5.788 9.675,5.788 9.689,5.788 C9.689,5.758 9.689,5.728 9.689,5.698 C9.704,5.698 9.719,5.698 9.734,5.698 C9.811,5.521 9.957,4.713 9.866,4.403 C9.852,4.403 9.837,4.403 9.822,4.403 C9.822,4.329 9.822,4.254 9.822,4.180 C9.807,4.180 9.793,4.180 9.778,4.180 C9.778,4.150 9.778,4.120 9.778,4.091 C9.763,4.091 9.748,4.091 9.734,4.091 C9.734,4.046 9.734,4.001 9.734,3.957 C9.719,3.957 9.704,3.957 9.689,3.957 C9.689,3.927 9.689,3.897 9.689,3.867 C9.675,3.867 9.660,3.867 9.645,3.867 C9.645,3.837 9.645,3.808 9.645,3.778 C9.616,3.763 9.586,3.748 9.557,3.733 C9.557,3.704 9.557,3.674 9.557,3.644 C9.542,3.644 9.527,3.644 9.512,3.644 C9.468,3.584 9.424,3.525 9.380,3.465 C9.350,3.465 9.321,3.465 9.291,3.465 C9.262,3.421 9.232,3.376 9.203,3.331 C8.967,3.257 8.731,3.182 8.495,3.108 C8.421,3.108 8.347,3.108 8.274,3.108 C8.274,3.093 8.274,3.078 8.274,3.063 C8.185,3.063 8.097,3.063 8.008,3.063 C8.008,3.048 8.008,3.034 8.008,3.019 C7.831,3.019 7.654,3.019 7.477,3.019 C7.157,2.929 6.633,2.974 6.238,2.974 C5.457,2.974 4.675,2.974 3.893,2.974 ZM26.989,11.281 C24.069,11.281 21.148,11.281 18.229,11.281 C18.230,11.650 18.312,11.997 18.406,12.263 C18.420,12.367 18.435,12.472 18.450,12.576 C18.465,12.576 18.479,12.576 18.494,12.576 C18.494,12.606 18.494,12.635 18.494,12.665 C18.509,12.665 18.524,12.665 18.538,12.665 C18.553,12.740 18.568,12.814 18.583,12.889 C18.612,12.903 18.642,12.918 18.671,12.933 C18.686,12.993 18.701,13.052 18.715,13.112 C18.745,13.127 18.774,13.142 18.804,13.156 C18.804,13.186 18.804,13.216 18.804,13.246 C18.907,13.335 19.010,13.424 19.113,13.514 C19.172,13.588 19.231,13.663 19.290,13.737 C19.320,13.737 19.349,13.737 19.379,13.737 C19.394,13.767 19.408,13.797 19.423,13.826 C19.512,13.856 19.600,13.886 19.689,13.916 C19.703,13.945 19.718,13.975 19.733,14.005 C19.762,14.005 19.792,14.005 19.821,14.005 C19.821,14.020 19.821,14.035 19.821,14.050 C19.866,14.050 19.910,14.050 19.954,14.050 C19.954,14.065 19.954,14.079 19.954,14.094 C19.998,14.094 20.043,14.094 20.087,14.094 C20.087,14.109 20.087,14.124 20.087,14.139 C20.131,14.139 20.175,14.139 20.220,14.139 C20.220,14.154 20.220,14.169 20.220,14.184 C20.293,14.184 20.367,14.184 20.441,14.184 C20.441,14.199 20.441,14.213 20.441,14.228 C20.721,14.258 21.001,14.288 21.281,14.318 C21.281,14.303 21.281,14.288 21.281,14.273 C21.444,14.273 21.606,14.273 21.768,14.273 C21.768,14.258 21.768,14.243 21.768,14.228 C21.827,14.228 21.886,14.228 21.945,14.228 C21.945,14.213 21.945,14.199 21.945,14.184 C22.063,14.169 22.181,14.154 22.299,14.139 C22.299,14.124 22.299,14.109 22.299,14.094 C22.329,14.094 22.358,14.094 22.388,14.094 C22.388,14.079 22.388,14.065 22.388,14.050 C22.432,14.050 22.476,14.050 22.520,14.050 C22.520,14.035 22.520,14.020 22.520,14.005 C22.550,14.005 22.579,14.005 22.609,14.005 C22.624,13.975 22.638,13.945 22.653,13.916 C22.683,13.916 22.712,13.916 22.741,13.916 C22.756,13.886 22.771,13.856 22.786,13.826 C22.815,13.826 22.845,13.826 22.874,13.826 C22.889,13.797 22.904,13.767 22.918,13.737 C22.948,13.737 22.977,13.737 23.007,13.737 C23.051,13.678 23.095,13.618 23.140,13.558 C23.169,13.544 23.199,13.529 23.228,13.514 C23.228,13.484 23.228,13.454 23.228,13.424 C23.272,13.395 23.317,13.365 23.361,13.335 C23.361,13.305 23.361,13.276 23.361,13.246 C23.376,13.246 23.390,13.246 23.405,13.246 C23.420,13.201 23.435,13.156 23.449,13.112 C23.479,13.097 23.508,13.082 23.538,13.067 C23.538,13.037 23.538,13.008 23.538,12.978 C23.553,12.978 23.567,12.978 23.582,12.978 C23.597,12.948 23.612,12.918 23.626,12.889 C24.673,12.889 25.721,12.889 26.768,12.889 C26.794,12.960 26.807,12.995 26.812,13.112 C26.720,13.214 26.778,13.330 26.723,13.469 C26.709,13.469 26.694,13.469 26.679,13.469 C26.679,13.499 26.679,13.529 26.679,13.558 C26.664,13.558 26.650,13.558 26.635,13.558 C26.635,13.603 26.635,13.648 26.635,13.692 C26.620,13.692 26.605,13.692 26.591,13.692 C26.561,13.782 26.532,13.871 26.502,13.960 C26.488,13.960 26.473,13.960 26.458,13.960 C26.443,14.020 26.429,14.079 26.414,14.139 C26.384,14.154 26.355,14.169 26.325,14.184 C26.325,14.213 26.325,14.243 26.325,14.273 C26.296,14.288 26.266,14.303 26.237,14.318 C26.237,14.347 26.237,14.377 26.237,14.407 C26.207,14.422 26.178,14.437 26.148,14.452 C26.148,14.481 26.148,14.511 26.148,14.541 C26.119,14.556 26.089,14.571 26.060,14.586 C26.060,14.615 26.060,14.645 26.060,14.675 C25.971,14.749 25.883,14.824 25.794,14.898 C25.193,15.738 24.256,16.278 23.184,16.640 C23.110,16.640 23.036,16.640 22.963,16.640 C22.963,16.655 22.963,16.670 22.963,16.685 C22.904,16.685 22.845,16.685 22.786,16.685 C22.786,16.699 22.786,16.714 22.786,16.729 C22.727,16.729 22.668,16.729 22.609,16.729 C22.609,16.744 22.609,16.759 22.609,16.774 C22.388,16.789 22.166,16.804 21.945,16.819 C21.945,16.833 21.945,16.848 21.945,16.863 C21.694,16.863 21.444,16.863 21.193,16.863 C20.407,16.863 19.808,16.797 19.246,16.595 C19.187,16.595 19.128,16.595 19.069,16.595 C19.069,16.580 19.069,16.565 19.069,16.551 C18.981,16.536 18.892,16.521 18.804,16.506 C18.804,16.491 18.804,16.476 18.804,16.461 C18.774,16.461 18.745,16.461 18.715,16.461 C18.715,16.446 18.715,16.432 18.715,16.417 C18.671,16.417 18.627,16.417 18.583,16.417 C18.583,16.402 18.583,16.387 18.583,16.372 C18.553,16.372 18.524,16.372 18.494,16.372 C18.494,16.357 18.494,16.342 18.494,16.327 C18.450,16.327 18.406,16.327 18.361,16.327 C18.361,16.312 18.361,16.298 18.361,16.283 C18.273,16.253 18.184,16.223 18.096,16.193 C18.096,16.178 18.096,16.164 18.096,16.149 C18.066,16.149 18.037,16.149 18.007,16.149 C18.007,16.134 18.007,16.119 18.007,16.104 C17.948,16.089 17.889,16.074 17.830,16.059 C17.816,16.030 17.801,16.000 17.786,15.970 C17.727,15.955 17.668,15.940 17.609,15.925 C17.594,15.896 17.580,15.866 17.565,15.836 C17.535,15.836 17.506,15.836 17.476,15.836 C17.462,15.806 17.447,15.777 17.432,15.747 C17.403,15.747 17.373,15.747 17.344,15.747 C17.329,15.717 17.314,15.687 17.299,15.657 C17.270,15.657 17.240,15.657 17.211,15.657 C17.181,15.613 17.152,15.568 17.122,15.523 C17.093,15.523 17.063,15.523 17.034,15.523 C17.019,15.494 17.005,15.464 16.990,15.434 C16.960,15.434 16.931,15.434 16.901,15.434 C16.842,15.360 16.783,15.285 16.724,15.211 C16.577,15.077 16.429,14.943 16.282,14.809 C16.282,14.779 16.282,14.749 16.282,14.720 C16.223,14.675 16.164,14.630 16.105,14.586 C16.105,14.556 16.105,14.526 16.105,14.496 C16.075,14.481 16.046,14.466 16.016,14.452 C16.002,14.392 15.987,14.333 15.972,14.273 C15.943,14.258 15.913,14.243 15.884,14.228 C15.884,14.199 15.884,14.169 15.884,14.139 C15.854,14.124 15.825,14.109 15.795,14.094 C15.795,14.065 15.795,14.035 15.795,14.005 C15.780,14.005 15.766,14.005 15.751,14.005 C15.751,13.975 15.751,13.945 15.751,13.916 C15.736,13.916 15.721,13.916 15.707,13.916 C15.707,13.871 15.707,13.826 15.707,13.782 C15.692,13.782 15.677,13.782 15.662,13.782 C15.662,13.752 15.662,13.722 15.662,13.692 C15.648,13.692 15.633,13.692 15.618,13.692 C15.589,13.603 15.559,13.514 15.530,13.424 C15.515,13.424 15.500,13.424 15.485,13.424 C15.485,13.365 15.485,13.305 15.485,13.246 C15.471,13.246 15.456,13.246 15.441,13.246 C15.441,13.201 15.441,13.156 15.441,13.112 C15.426,13.112 15.412,13.112 15.397,13.112 C15.397,13.067 15.397,13.022 15.397,12.978 C15.382,12.978 15.367,12.978 15.353,12.978 C15.353,12.933 15.353,12.889 15.353,12.844 C15.338,12.844 15.323,12.844 15.308,12.844 C15.308,12.784 15.308,12.725 15.308,12.665 C15.243,12.462 15.191,12.162 15.132,11.951 C15.132,11.817 15.132,11.683 15.132,11.549 C15.071,11.331 15.155,10.947 15.087,10.700 C15.073,10.700 15.058,10.700 15.043,10.700 C15.058,10.462 15.073,10.224 15.087,9.986 C15.089,9.255 15.208,8.600 15.397,8.065 C15.426,7.916 15.456,7.768 15.485,7.619 C15.500,7.619 15.515,7.619 15.530,7.619 C15.544,7.544 15.559,7.470 15.574,7.395 C15.589,7.395 15.603,7.395 15.618,7.395 C15.618,7.366 15.618,7.336 15.618,7.306 C15.633,7.306 15.648,7.306 15.662,7.306 C15.707,7.172 15.751,7.038 15.795,6.904 C15.825,6.889 15.854,6.874 15.884,6.859 C15.913,6.770 15.943,6.681 15.972,6.591 C16.002,6.577 16.031,6.562 16.061,6.547 C16.061,6.517 16.061,6.487 16.061,6.458 C16.075,6.458 16.090,6.458 16.105,6.458 C16.120,6.413 16.134,6.368 16.149,6.324 C16.179,6.309 16.208,6.294 16.238,6.279 C16.238,6.249 16.238,6.219 16.238,6.190 C16.311,6.130 16.385,6.070 16.459,6.011 C16.459,5.981 16.459,5.951 16.459,5.922 C16.577,5.817 16.695,5.713 16.813,5.609 C16.901,5.505 16.990,5.401 17.078,5.296 C17.108,5.296 17.137,5.296 17.167,5.296 C17.196,5.252 17.226,5.207 17.255,5.162 C17.285,5.162 17.314,5.162 17.344,5.162 C17.373,5.118 17.403,5.073 17.432,5.028 C17.462,5.028 17.491,5.028 17.521,5.028 C17.535,4.999 17.550,4.969 17.565,4.939 C17.594,4.939 17.624,4.939 17.653,4.939 C17.668,4.909 17.683,4.880 17.698,4.850 C17.757,4.835 17.816,4.820 17.875,4.805 C17.889,4.775 17.904,4.746 17.919,4.716 C17.948,4.716 17.978,4.716 18.007,4.716 C18.007,4.701 18.007,4.686 18.007,4.671 C18.066,4.656 18.125,4.641 18.184,4.626 C18.184,4.612 18.184,4.597 18.184,4.582 C18.229,4.582 18.273,4.582 18.317,4.582 C18.317,4.567 18.317,4.552 18.317,4.537 C18.347,4.537 18.376,4.537 18.406,4.537 C18.406,4.522 18.406,4.507 18.406,4.492 C18.465,4.478 18.524,4.463 18.583,4.448 C18.583,4.433 18.583,4.418 18.583,4.403 C18.671,4.388 18.760,4.373 18.848,4.359 C18.848,4.344 18.848,4.329 18.848,4.314 C18.892,4.314 18.937,4.314 18.981,4.314 C18.981,4.299 18.981,4.284 18.981,4.269 C19.025,4.269 19.069,4.269 19.113,4.269 C19.113,4.254 19.113,4.239 19.113,4.225 C19.158,4.225 19.202,4.225 19.246,4.225 C19.246,4.210 19.246,4.195 19.246,4.180 C19.379,4.165 19.512,4.150 19.644,4.135 C19.644,4.120 19.644,4.105 19.644,4.091 C19.880,4.076 20.116,4.061 20.352,4.046 C20.775,3.927 21.702,3.982 22.078,4.091 C22.181,4.091 22.284,4.091 22.388,4.091 C22.388,4.105 22.388,4.120 22.388,4.135 C22.520,4.150 22.653,4.165 22.786,4.180 C22.786,4.195 22.786,4.210 22.786,4.225 C22.845,4.225 22.904,4.225 22.963,4.225 C22.963,4.239 22.963,4.254 22.963,4.269 C23.066,4.284 23.169,4.299 23.272,4.314 C23.272,4.329 23.272,4.344 23.272,4.359 C23.317,4.359 23.361,4.359 23.405,4.359 C23.405,4.373 23.405,4.388 23.405,4.403 C23.449,4.403 23.494,4.403 23.538,4.403 C23.538,4.418 23.538,4.433 23.538,4.448 C23.597,4.463 23.656,4.478 23.715,4.492 C23.715,4.507 23.715,4.522 23.715,4.537 C23.759,4.537 23.803,4.537 23.848,4.537 C23.848,4.552 23.848,4.567 23.848,4.582 C23.907,4.597 23.966,4.612 24.025,4.626 C24.025,4.641 24.025,4.656 24.025,4.671 C24.084,4.686 24.143,4.701 24.202,4.716 C24.216,4.746 24.231,4.775 24.246,4.805 C24.334,4.835 24.423,4.865 24.511,4.894 C24.541,4.939 24.570,4.984 24.600,5.028 C24.629,5.028 24.659,5.028 24.688,5.028 C24.718,5.073 24.747,5.118 24.777,5.162 C24.806,5.162 24.836,5.162 24.865,5.162 C24.880,5.192 24.895,5.222 24.909,5.252 C24.939,5.252 24.968,5.252 24.998,5.252 C25.219,5.490 25.440,5.728 25.662,5.966 C25.662,5.996 25.662,6.026 25.662,6.056 C25.721,6.100 25.780,6.145 25.839,6.190 C25.839,6.219 25.839,6.249 25.839,6.279 C25.868,6.294 25.898,6.309 25.927,6.324 C25.942,6.368 25.957,6.413 25.971,6.458 C25.986,6.458 26.001,6.458 26.016,6.458 C26.016,6.487 26.016,6.517 26.016,6.547 C26.045,6.562 26.075,6.577 26.104,6.591 C26.134,6.681 26.163,6.770 26.193,6.859 C26.222,6.874 26.252,6.889 26.281,6.904 C26.281,6.934 26.281,6.964 26.281,6.993 C26.296,6.993 26.311,6.993 26.325,6.993 C26.325,7.023 26.325,7.053 26.325,7.083 C26.340,7.083 26.355,7.083 26.370,7.083 C26.370,7.127 26.370,7.172 26.370,7.217 C26.384,7.217 26.399,7.217 26.414,7.217 C26.429,7.276 26.443,7.336 26.458,7.395 C26.473,7.395 26.488,7.395 26.502,7.395 C26.517,7.470 26.532,7.544 26.546,7.619 C26.561,7.619 26.576,7.619 26.591,7.619 C26.694,8.021 26.797,8.423 26.900,8.824 C26.900,8.973 26.900,9.122 26.900,9.271 C27.049,9.804 26.988,10.617 26.989,11.281 ZM18.317,9.182 C20.116,9.182 21.916,9.182 23.715,9.182 C23.704,8.878 23.623,8.597 23.538,8.378 C23.538,8.333 23.538,8.289 23.538,8.244 C23.523,8.244 23.508,8.244 23.494,8.244 C23.494,8.199 23.494,8.155 23.494,8.110 C23.479,8.110 23.464,8.110 23.449,8.110 C23.435,8.050 23.420,7.991 23.405,7.931 C23.390,7.931 23.376,7.931 23.361,7.931 C23.346,7.872 23.331,7.812 23.317,7.753 C23.287,7.738 23.258,7.723 23.228,7.708 C23.228,7.678 23.228,7.648 23.228,7.619 C23.184,7.589 23.140,7.559 23.095,7.529 C23.081,7.485 23.066,7.440 23.051,7.395 C23.022,7.395 22.992,7.395 22.963,7.395 C22.904,7.321 22.845,7.246 22.786,7.172 C22.756,7.172 22.727,7.172 22.697,7.172 C22.683,7.142 22.668,7.113 22.653,7.083 C22.609,7.068 22.565,7.053 22.520,7.038 C22.520,7.023 22.520,7.008 22.520,6.993 C22.432,6.964 22.343,6.934 22.255,6.904 C22.255,6.889 22.255,6.874 22.255,6.859 C22.196,6.845 22.137,6.830 22.078,6.815 C22.078,6.800 22.078,6.785 22.078,6.770 C21.960,6.755 21.842,6.740 21.724,6.725 C21.724,6.711 21.724,6.696 21.724,6.681 C21.665,6.681 21.606,6.681 21.547,6.681 C21.547,6.666 21.547,6.651 21.547,6.636 C21.178,6.636 20.809,6.636 20.441,6.636 C20.441,6.651 20.441,6.666 20.441,6.681 C20.397,6.681 20.352,6.681 20.308,6.681 C20.308,6.696 20.308,6.711 20.308,6.725 C20.146,6.755 19.984,6.785 19.821,6.815 C19.821,6.830 19.821,6.845 19.821,6.859 C19.792,6.859 19.762,6.859 19.733,6.859 C19.733,6.874 19.733,6.889 19.733,6.904 C19.674,6.919 19.615,6.934 19.556,6.949 C19.541,6.979 19.526,7.008 19.512,7.038 C19.482,7.038 19.453,7.038 19.423,7.038 C19.394,7.083 19.364,7.127 19.335,7.172 C19.305,7.172 19.276,7.172 19.246,7.172 C19.202,7.232 19.158,7.291 19.113,7.351 C19.099,7.351 19.084,7.351 19.069,7.351 C19.069,7.380 19.069,7.410 19.069,7.440 C19.025,7.470 18.981,7.500 18.937,7.529 C18.937,7.559 18.937,7.589 18.937,7.619 C18.892,7.648 18.848,7.678 18.804,7.708 C18.774,7.797 18.745,7.887 18.715,7.976 C18.701,7.976 18.686,7.976 18.671,7.976 C18.671,8.006 18.671,8.035 18.671,8.065 C18.642,8.080 18.612,8.095 18.583,8.110 C18.583,8.155 18.583,8.199 18.583,8.244 C18.568,8.244 18.553,8.244 18.538,8.244 C18.538,8.274 18.538,8.303 18.538,8.333 C18.524,8.333 18.509,8.333 18.494,8.333 C18.435,8.616 18.376,8.899 18.317,9.182 ZM3.893,9.539 C3.893,11.042 3.893,12.546 3.893,14.050 C4.764,14.050 5.634,14.050 6.504,14.050 C6.924,14.050 7.487,14.103 7.831,14.005 C7.979,14.005 8.126,14.005 8.274,14.005 C8.274,13.990 8.274,13.975 8.274,13.960 C8.347,13.960 8.421,13.960 8.495,13.960 C8.495,13.945 8.495,13.931 8.495,13.916 C8.554,13.916 8.613,13.916 8.672,13.916 C8.672,13.901 8.672,13.886 8.672,13.871 C8.731,13.871 8.790,13.871 8.849,13.871 C8.849,13.856 8.849,13.841 8.849,13.826 C8.893,13.826 8.937,13.826 8.982,13.826 C8.982,13.811 8.982,13.797 8.982,13.782 C9.011,13.782 9.041,13.782 9.070,13.782 C9.070,13.767 9.070,13.752 9.070,13.737 C9.129,13.722 9.188,13.707 9.247,13.692 C9.262,13.663 9.277,13.633 9.291,13.603 C9.321,13.603 9.350,13.603 9.380,13.603 C9.395,13.573 9.409,13.544 9.424,13.514 C9.453,13.514 9.483,13.514 9.512,13.514 C9.557,13.454 9.601,13.395 9.645,13.335 C9.675,13.320 9.704,13.305 9.734,13.290 C9.734,13.261 9.734,13.231 9.734,13.201 C9.778,13.171 9.822,13.142 9.866,13.112 C9.866,13.082 9.866,13.052 9.866,13.022 C9.896,13.008 9.925,12.993 9.955,12.978 C9.955,12.933 9.955,12.889 9.955,12.844 C9.970,12.844 9.984,12.844 9.999,12.844 C10.014,12.784 10.029,12.725 10.043,12.665 C10.058,12.665 10.073,12.665 10.088,12.665 C10.159,12.485 10.302,11.568 10.220,11.281 C10.206,11.281 10.191,11.281 10.176,11.281 C10.176,11.191 10.176,11.102 10.176,11.013 C10.161,11.013 10.147,11.013 10.132,11.013 C10.117,10.923 10.102,10.834 10.088,10.745 C10.073,10.745 10.058,10.745 10.043,10.745 C10.014,10.656 9.984,10.566 9.955,10.477 C9.925,10.462 9.896,10.447 9.866,10.432 C9.866,10.402 9.866,10.373 9.866,10.343 C9.807,10.298 9.748,10.254 9.689,10.209 C9.660,10.164 9.630,10.120 9.601,10.075 C9.571,10.075 9.542,10.075 9.512,10.075 C9.483,10.030 9.453,9.986 9.424,9.941 C9.365,9.926 9.306,9.911 9.247,9.896 C9.247,9.881 9.247,9.867 9.247,9.852 C9.188,9.837 9.129,9.822 9.070,9.807 C9.070,9.792 9.070,9.777 9.070,9.762 C9.026,9.762 8.982,9.762 8.937,9.762 C8.937,9.747 8.937,9.733 8.937,9.718 C8.908,9.718 8.878,9.718 8.849,9.718 C8.849,9.703 8.849,9.688 8.849,9.673 C8.775,9.673 8.701,9.673 8.628,9.673 C8.628,9.658 8.628,9.643 8.628,9.628 C8.554,9.628 8.480,9.628 8.406,9.628 C8.406,9.613 8.406,9.599 8.406,9.584 C8.274,9.584 8.141,9.584 8.008,9.584 C7.651,9.483 7.070,9.539 6.637,9.539 C5.722,9.539 4.808,9.539 3.893,9.539 Z"/>
</svg>