<svg 
 xmlns="http://www.w3.org/2000/svg"
 xmlns:xlink="http://www.w3.org/1999/xlink"
 width="21px" height="20px">
<path fill-rule="evenodd"  fill="rgb(229, 229, 229)"
 d="M4.421,0.684 C4.421,0.707 4.421,0.730 4.421,0.753 C4.490,0.810 4.559,0.867 4.627,0.924 C4.627,0.947 4.627,0.969 4.627,0.992 C4.650,1.004 4.673,1.015 4.696,1.026 C4.696,1.049 4.696,1.072 4.696,1.095 C4.719,1.106 4.742,1.118 4.765,1.129 C4.776,1.175 4.788,1.220 4.799,1.266 C4.811,1.266 4.822,1.266 4.834,1.266 C4.845,1.311 4.856,1.357 4.868,1.403 C4.879,1.403 4.891,1.403 4.902,1.403 C4.902,1.437 4.902,1.471 4.902,1.505 C4.914,1.505 4.925,1.505 4.937,1.505 C4.937,1.540 4.937,1.574 4.937,1.608 C4.948,1.608 4.960,1.608 4.971,1.608 C4.971,1.642 4.971,1.676 4.971,1.711 C4.982,1.711 4.994,1.711 5.005,1.711 C5.005,1.756 5.005,1.802 5.005,1.847 C5.017,1.847 5.028,1.847 5.040,1.847 C5.040,1.904 5.040,1.961 5.040,2.018 C5.148,2.382 5.042,2.851 4.937,3.113 C4.937,3.147 4.937,3.182 4.937,3.216 C4.925,3.216 4.914,3.216 4.902,3.216 C4.902,3.239 4.902,3.262 4.902,3.284 C4.891,3.284 4.879,3.284 4.868,3.284 C4.868,3.307 4.868,3.330 4.868,3.353 C4.856,3.353 4.845,3.353 4.834,3.353 C4.834,3.376 4.834,3.398 4.834,3.421 C4.822,3.421 4.811,3.421 4.799,3.421 C4.799,3.444 4.799,3.467 4.799,3.490 C4.788,3.490 4.776,3.490 4.765,3.490 C4.765,3.512 4.765,3.535 4.765,3.558 C4.753,3.558 4.742,3.558 4.730,3.558 C4.730,3.581 4.730,3.604 4.730,3.626 C4.696,3.649 4.662,3.672 4.627,3.695 C4.305,4.147 3.927,4.385 3.356,4.584 C3.310,4.584 3.264,4.584 3.218,4.584 C3.218,4.596 3.218,4.607 3.218,4.619 C3.149,4.619 3.081,4.619 3.012,4.619 C3.012,4.630 3.012,4.641 3.012,4.653 C2.863,4.653 2.714,4.653 2.565,4.653 C2.565,4.664 2.565,4.676 2.565,4.687 C2.490,4.703 2.462,4.653 2.462,4.653 C2.324,4.653 2.187,4.653 2.049,4.653 C2.049,4.641 2.049,4.630 2.049,4.619 C1.981,4.619 1.912,4.619 1.843,4.619 C1.843,4.607 1.843,4.596 1.843,4.584 C1.797,4.584 1.752,4.584 1.706,4.584 C1.706,4.573 1.706,4.562 1.706,4.550 C1.671,4.550 1.637,4.550 1.603,4.550 C1.603,4.539 1.603,4.527 1.603,4.516 C1.580,4.516 1.557,4.516 1.534,4.516 C1.534,4.505 1.534,4.493 1.534,4.482 C1.499,4.482 1.465,4.482 1.431,4.482 C1.431,4.470 1.431,4.459 1.431,4.448 C1.396,4.448 1.362,4.448 1.328,4.448 C1.328,4.436 1.328,4.425 1.328,4.413 C1.305,4.413 1.282,4.413 1.259,4.413 C1.259,4.402 1.259,4.391 1.259,4.379 C1.236,4.379 1.213,4.379 1.190,4.379 C1.179,4.356 1.167,4.333 1.156,4.311 C1.110,4.299 1.064,4.288 1.018,4.276 C1.007,4.254 0.995,4.231 0.984,4.208 C0.961,4.208 0.938,4.208 0.915,4.208 C0.869,4.151 0.823,4.094 0.778,4.037 C0.755,4.037 0.732,4.037 0.709,4.037 C0.697,4.014 0.686,3.991 0.675,3.969 C0.663,3.969 0.652,3.969 0.640,3.969 C0.640,3.946 0.640,3.923 0.640,3.900 C0.583,3.855 0.526,3.809 0.468,3.763 C0.468,3.740 0.468,3.718 0.468,3.695 C0.445,3.683 0.422,3.672 0.400,3.661 C0.388,3.626 0.377,3.592 0.365,3.558 C0.354,3.558 0.342,3.558 0.331,3.558 C0.319,3.512 0.308,3.467 0.296,3.421 C0.285,3.421 0.274,3.421 0.262,3.421 C0.251,3.376 0.239,3.330 0.228,3.284 C0.216,3.284 0.205,3.284 0.193,3.284 C0.193,3.250 0.193,3.216 0.193,3.182 C0.182,3.182 0.170,3.182 0.159,3.182 C0.159,3.159 0.159,3.136 0.159,3.113 C0.148,3.113 0.136,3.113 0.125,3.113 C0.125,3.079 0.125,3.045 0.125,3.011 C0.113,3.011 0.102,3.011 0.090,3.011 C0.090,2.965 0.090,2.919 0.090,2.874 C0.048,2.742 -0.040,2.229 0.021,2.018 C0.033,2.018 0.044,2.018 0.056,2.018 C0.056,1.950 0.056,1.882 0.056,1.813 C0.067,1.813 0.079,1.813 0.090,1.813 C0.090,1.768 0.090,1.722 0.090,1.676 C0.102,1.676 0.113,1.676 0.125,1.676 C0.125,1.642 0.125,1.608 0.125,1.574 C0.136,1.574 0.148,1.574 0.159,1.574 C0.159,1.551 0.159,1.528 0.159,1.505 C0.170,1.505 0.182,1.505 0.193,1.505 C0.193,1.471 0.193,1.437 0.193,1.403 C0.205,1.403 0.216,1.403 0.228,1.403 C0.239,1.357 0.251,1.311 0.262,1.266 C0.274,1.266 0.285,1.266 0.296,1.266 C0.308,1.220 0.319,1.175 0.331,1.129 C0.354,1.118 0.377,1.106 0.400,1.095 C0.400,1.072 0.400,1.049 0.400,1.026 C0.422,1.015 0.445,1.004 0.468,0.992 C0.468,0.969 0.468,0.947 0.468,0.924 C0.560,0.844 0.652,0.764 0.743,0.684 C0.778,0.639 0.812,0.593 0.846,0.547 C0.869,0.547 0.892,0.547 0.915,0.547 C0.938,0.513 0.961,0.479 0.984,0.445 C1.030,0.433 1.076,0.422 1.121,0.411 C1.133,0.388 1.144,0.365 1.156,0.342 C1.202,0.331 1.247,0.319 1.293,0.308 C1.293,0.297 1.293,0.285 1.293,0.274 C1.339,0.262 1.385,0.251 1.431,0.239 C1.431,0.228 1.431,0.217 1.431,0.205 C1.511,0.194 1.591,0.182 1.671,0.171 C1.671,0.160 1.671,0.148 1.671,0.137 C1.706,0.137 1.740,0.137 1.774,0.137 C1.774,0.125 1.774,0.114 1.774,0.103 C1.820,0.103 1.866,0.103 1.912,0.103 C1.912,0.091 1.912,0.080 1.912,0.068 C1.969,0.068 2.026,0.068 2.084,0.068 C2.084,0.057 2.084,0.046 2.084,0.034 C2.221,0.034 2.359,0.034 2.496,0.034 C2.496,0.023 2.496,0.011 2.496,-0.000 C2.680,0.011 2.863,0.023 3.046,0.034 C3.046,0.046 3.046,0.057 3.046,0.068 C3.103,0.068 3.161,0.068 3.218,0.068 C3.218,0.080 3.218,0.091 3.218,0.103 C3.264,0.103 3.310,0.103 3.356,0.103 C3.356,0.114 3.356,0.125 3.356,0.137 C3.390,0.137 3.424,0.137 3.459,0.137 C3.459,0.148 3.459,0.160 3.459,0.171 C3.504,0.171 3.550,0.171 3.596,0.171 C3.596,0.182 3.596,0.194 3.596,0.205 C3.619,0.205 3.642,0.205 3.665,0.205 C3.665,0.217 3.665,0.228 3.665,0.239 C3.699,0.239 3.734,0.239 3.768,0.239 C3.768,0.251 3.768,0.262 3.768,0.274 C3.791,0.274 3.814,0.274 3.837,0.274 C3.848,0.296 3.860,0.319 3.871,0.342 C3.894,0.342 3.917,0.342 3.940,0.342 C3.940,0.354 3.940,0.365 3.940,0.376 C3.986,0.388 4.032,0.399 4.077,0.411 C4.089,0.433 4.100,0.456 4.112,0.479 C4.135,0.479 4.158,0.479 4.180,0.479 C4.180,0.490 4.180,0.502 4.180,0.513 C4.260,0.579 4.308,0.653 4.421,0.684 ZM20.988,19.980 C19.499,19.980 18.009,19.980 16.520,19.980 C16.450,19.789 16.485,19.442 16.485,19.193 C16.485,18.668 16.485,18.144 16.485,17.619 C16.485,15.817 16.485,14.015 16.485,12.214 C16.428,11.894 16.371,11.575 16.314,11.256 C16.152,10.806 15.850,10.307 15.489,10.058 C15.466,10.058 15.443,10.058 15.420,10.058 C15.409,10.035 15.397,10.013 15.386,9.990 C14.984,9.738 14.139,9.637 13.598,9.819 C13.552,9.819 13.507,9.819 13.461,9.819 C13.461,9.830 13.461,9.842 13.461,9.853 C13.426,9.853 13.392,9.853 13.358,9.853 C13.358,9.864 13.358,9.876 13.358,9.887 C13.289,9.910 13.220,9.933 13.151,9.956 C13.151,9.967 13.151,9.978 13.151,9.990 C13.129,9.990 13.106,9.990 13.083,9.990 C13.083,10.001 13.083,10.013 13.083,10.024 C13.037,10.035 12.991,10.047 12.945,10.058 C12.922,10.092 12.899,10.127 12.876,10.161 C12.842,10.172 12.808,10.184 12.773,10.195 C12.773,10.207 12.773,10.218 12.773,10.229 C12.750,10.229 12.728,10.229 12.705,10.229 C12.647,10.298 12.590,10.366 12.533,10.435 C12.475,10.480 12.418,10.526 12.361,10.571 C12.349,10.606 12.338,10.640 12.327,10.674 C12.292,10.697 12.258,10.720 12.223,10.743 C12.223,10.765 12.223,10.788 12.223,10.811 C12.212,10.811 12.200,10.811 12.189,10.811 C12.189,10.834 12.189,10.857 12.189,10.879 C12.166,10.891 12.143,10.902 12.120,10.914 C12.120,10.936 12.120,10.959 12.120,10.982 C12.097,10.993 12.074,11.005 12.052,11.016 C12.052,11.039 12.052,11.062 12.052,11.085 C12.040,11.085 12.029,11.085 12.017,11.085 C12.017,11.107 12.017,11.130 12.017,11.153 C12.006,11.153 11.994,11.153 11.983,11.153 C11.983,11.187 11.983,11.221 11.983,11.256 C11.971,11.256 11.960,11.256 11.948,11.256 C11.948,11.278 11.948,11.301 11.948,11.324 C11.937,11.324 11.926,11.324 11.914,11.324 C11.914,11.358 11.914,11.393 11.914,11.427 C11.903,11.427 11.891,11.427 11.880,11.427 C11.880,11.450 11.880,11.472 11.880,11.495 C11.868,11.495 11.857,11.495 11.845,11.495 C11.845,11.541 11.845,11.586 11.845,11.632 C11.834,11.632 11.822,11.632 11.811,11.632 C11.799,11.906 11.788,12.179 11.777,12.453 C11.777,12.966 11.777,13.479 11.777,13.993 C11.777,15.977 11.777,17.961 11.777,19.945 C11.503,20.045 10.732,19.980 10.367,19.980 C9.336,19.980 8.305,19.980 7.274,19.980 C7.274,18.030 7.274,16.079 7.274,14.129 C7.274,13.537 7.274,12.943 7.274,12.350 C7.274,12.056 7.242,11.664 7.308,11.427 C7.297,9.785 7.285,8.142 7.274,6.500 C8.763,6.500 10.253,6.500 11.742,6.500 C11.797,6.648 11.777,6.914 11.777,7.116 C11.777,7.527 11.777,7.937 11.777,8.348 C11.788,8.348 11.799,8.348 11.811,8.348 C11.811,8.336 11.811,8.325 11.811,8.313 C11.882,8.255 11.894,8.188 11.948,8.108 C11.971,8.097 11.994,8.085 12.017,8.074 C12.017,8.051 12.017,8.028 12.017,8.006 C12.074,7.960 12.132,7.914 12.189,7.869 C12.189,7.846 12.189,7.823 12.189,7.800 C12.258,7.743 12.327,7.686 12.395,7.629 C12.395,7.606 12.395,7.584 12.395,7.561 C12.475,7.492 12.556,7.424 12.636,7.356 C12.659,7.321 12.682,7.287 12.705,7.253 C12.728,7.253 12.750,7.253 12.773,7.253 C12.796,7.219 12.819,7.184 12.842,7.150 C12.865,7.150 12.888,7.150 12.911,7.150 C12.945,7.105 12.980,7.059 13.014,7.013 C13.037,7.013 13.060,7.013 13.083,7.013 C13.106,6.979 13.129,6.945 13.151,6.911 C13.174,6.911 13.197,6.911 13.220,6.911 C13.232,6.888 13.243,6.865 13.255,6.842 C13.323,6.820 13.392,6.797 13.461,6.774 C13.472,6.751 13.484,6.728 13.495,6.706 C13.541,6.694 13.587,6.683 13.633,6.671 C13.633,6.660 13.633,6.648 13.633,6.637 C13.678,6.626 13.724,6.614 13.770,6.603 C13.770,6.591 13.770,6.580 13.770,6.569 C13.805,6.569 13.839,6.569 13.873,6.569 C13.873,6.557 13.873,6.546 13.873,6.534 C13.896,6.534 13.919,6.534 13.942,6.534 C13.942,6.523 13.942,6.512 13.942,6.500 C13.999,6.489 14.057,6.477 14.114,6.466 C14.114,6.455 14.114,6.443 14.114,6.432 C14.194,6.420 14.274,6.409 14.354,6.398 C14.354,6.386 14.354,6.375 14.354,6.363 C14.400,6.363 14.446,6.363 14.492,6.363 C14.492,6.352 14.492,6.341 14.492,6.329 C14.538,6.329 14.584,6.329 14.629,6.329 C14.629,6.318 14.629,6.306 14.629,6.295 C14.687,6.295 14.744,6.295 14.801,6.295 C14.801,6.284 14.801,6.272 14.801,6.261 C14.962,6.249 15.122,6.238 15.282,6.227 C15.282,6.215 15.282,6.204 15.282,6.192 C15.459,6.143 16.251,6.189 16.382,6.227 C16.463,6.227 16.543,6.227 16.623,6.227 C16.623,6.238 16.623,6.249 16.623,6.261 C16.703,6.261 16.783,6.261 16.864,6.261 C16.864,6.272 16.864,6.284 16.864,6.295 C16.921,6.295 16.978,6.295 17.035,6.295 C17.035,6.306 17.035,6.318 17.035,6.329 C17.081,6.329 17.127,6.329 17.173,6.329 C17.173,6.341 17.173,6.352 17.173,6.363 C17.230,6.363 17.288,6.363 17.345,6.363 C17.345,6.375 17.345,6.386 17.345,6.398 C17.379,6.398 17.414,6.398 17.448,6.398 C17.448,6.409 17.448,6.420 17.448,6.432 C17.482,6.432 17.517,6.432 17.551,6.432 C17.551,6.443 17.551,6.455 17.551,6.466 C17.585,6.466 17.620,6.466 17.654,6.466 C17.654,6.477 17.654,6.489 17.654,6.500 C17.689,6.500 17.723,6.500 17.757,6.500 C17.757,6.512 17.757,6.523 17.757,6.534 C17.792,6.534 17.826,6.534 17.860,6.534 C17.860,6.546 17.860,6.557 17.860,6.569 C17.883,6.569 17.906,6.569 17.929,6.569 C17.929,6.580 17.929,6.591 17.929,6.603 C17.963,6.603 17.998,6.603 18.032,6.603 C18.032,6.614 18.032,6.626 18.032,6.637 C18.101,6.660 18.170,6.683 18.238,6.706 C18.238,6.717 18.238,6.728 18.238,6.740 C18.307,6.763 18.376,6.785 18.445,6.808 C18.456,6.831 18.468,6.854 18.479,6.877 C18.525,6.888 18.571,6.899 18.617,6.911 C18.628,6.934 18.639,6.956 18.651,6.979 C18.697,6.991 18.743,7.002 18.788,7.013 C18.823,7.059 18.857,7.105 18.892,7.150 C18.914,7.150 18.937,7.150 18.960,7.150 C18.983,7.184 19.006,7.219 19.029,7.253 C19.052,7.253 19.075,7.253 19.098,7.253 C19.189,7.356 19.281,7.458 19.373,7.561 C19.476,7.652 19.579,7.743 19.682,7.834 C19.682,7.857 19.682,7.880 19.682,7.903 C19.728,7.937 19.774,7.971 19.820,8.006 C19.820,8.028 19.820,8.051 19.820,8.074 C19.842,8.085 19.865,8.097 19.888,8.108 C19.888,8.131 19.888,8.154 19.888,8.177 C19.911,8.188 19.934,8.199 19.957,8.211 C19.957,8.234 19.957,8.256 19.957,8.279 C19.980,8.291 20.003,8.302 20.026,8.313 C20.026,8.336 20.026,8.359 20.026,8.382 C20.049,8.393 20.072,8.405 20.095,8.416 C20.095,8.439 20.095,8.462 20.095,8.485 C20.106,8.485 20.117,8.485 20.129,8.485 C20.129,8.507 20.129,8.530 20.129,8.553 C20.140,8.553 20.152,8.553 20.163,8.553 C20.163,8.576 20.163,8.599 20.163,8.621 C20.175,8.621 20.186,8.621 20.198,8.621 C20.198,8.644 20.198,8.667 20.198,8.690 C20.221,8.701 20.243,8.713 20.266,8.724 C20.266,8.747 20.266,8.770 20.266,8.792 C20.278,8.792 20.289,8.792 20.301,8.792 C20.312,8.838 20.324,8.884 20.335,8.929 C20.347,8.929 20.358,8.929 20.369,8.929 C20.507,9.340 20.644,9.750 20.782,10.161 C20.793,10.286 20.805,10.412 20.816,10.537 C21.067,11.372 20.988,12.619 20.988,13.685 C20.988,15.783 20.988,17.882 20.988,19.980 ZM4.765,6.500 C4.765,10.982 4.765,15.464 4.765,19.945 C3.275,19.945 1.786,19.945 0.296,19.945 C0.296,15.476 0.296,11.004 0.296,6.534 C0.565,6.437 1.313,6.500 1.671,6.500 C2.702,6.500 3.734,6.500 4.765,6.500 Z"/>
</svg>