<svg 
 xmlns="http://www.w3.org/2000/svg"
 xmlns:xlink="http://www.w3.org/1999/xlink"
 width="29px" height="21px">
<path fill-rule="evenodd"  fill="rgb(229, 229, 229)"
 d="M0.018,-0.000 C1.116,-0.000 2.215,-0.000 3.313,-0.000 C3.313,2.182 3.313,4.364 3.313,6.546 C3.313,7.176 3.313,7.806 3.313,8.435 C3.328,8.772 3.342,9.109 3.357,9.446 C3.371,9.446 3.386,9.446 3.400,9.446 C3.400,9.504 3.400,9.563 3.400,9.621 C3.415,9.621 3.429,9.621 3.444,9.621 C3.472,9.753 3.501,9.885 3.530,10.017 C3.545,10.017 3.559,10.017 3.574,10.017 C3.603,10.105 3.631,10.192 3.660,10.280 C3.675,10.280 3.689,10.280 3.704,10.280 C3.704,10.310 3.704,10.339 3.704,10.368 C3.718,10.368 3.733,10.368 3.747,10.368 C3.762,10.412 3.776,10.456 3.791,10.500 C3.819,10.515 3.848,10.529 3.877,10.544 C3.877,10.573 3.877,10.603 3.877,10.632 C3.921,10.661 3.964,10.690 4.007,10.720 C4.007,10.749 4.007,10.778 4.007,10.808 C4.094,10.881 4.181,10.954 4.268,11.027 C4.325,11.100 4.383,11.174 4.441,11.247 C4.470,11.247 4.499,11.247 4.528,11.247 C4.557,11.291 4.586,11.335 4.614,11.379 C4.643,11.379 4.672,11.379 4.701,11.379 C4.716,11.408 4.730,11.437 4.745,11.467 C4.802,11.481 4.860,11.496 4.918,11.510 C4.918,11.525 4.918,11.540 4.918,11.554 C4.947,11.554 4.976,11.554 5.005,11.554 C5.005,11.569 5.005,11.584 5.005,11.598 C5.091,11.628 5.178,11.657 5.265,11.686 C5.265,11.701 5.265,11.715 5.265,11.730 C5.352,11.745 5.438,11.759 5.525,11.774 C5.525,11.789 5.525,11.803 5.525,11.818 C5.641,11.833 5.756,11.847 5.872,11.862 C5.872,11.877 5.872,11.891 5.872,11.906 C6.089,11.920 6.306,11.935 6.523,11.950 C6.523,11.935 6.523,11.920 6.523,11.906 C6.653,11.906 6.783,11.906 6.913,11.906 C6.913,11.891 6.913,11.877 6.913,11.862 C7.086,11.833 7.260,11.803 7.433,11.774 C7.433,11.759 7.433,11.745 7.433,11.730 C7.462,11.730 7.491,11.730 7.520,11.730 C7.520,11.715 7.520,11.701 7.520,11.686 C7.650,11.642 7.780,11.598 7.910,11.554 C7.925,11.525 7.939,11.496 7.954,11.467 C8.012,11.452 8.069,11.437 8.127,11.423 C8.156,11.379 8.185,11.335 8.214,11.291 C8.243,11.291 8.272,11.291 8.301,11.291 C8.416,11.159 8.532,11.027 8.648,10.895 C8.720,10.837 8.792,10.778 8.864,10.720 C8.864,10.690 8.864,10.661 8.864,10.632 C8.893,10.617 8.922,10.603 8.951,10.588 C8.951,10.559 8.951,10.529 8.951,10.500 C8.980,10.485 9.009,10.471 9.038,10.456 C9.038,10.427 9.038,10.397 9.038,10.368 C9.067,10.354 9.096,10.339 9.125,10.324 C9.125,10.295 9.125,10.266 9.125,10.236 C9.139,10.236 9.153,10.236 9.168,10.236 C9.168,10.207 9.168,10.178 9.168,10.149 C9.182,10.149 9.197,10.149 9.211,10.149 C9.579,9.315 9.472,7.921 9.472,6.722 C9.472,4.481 9.472,2.240 9.472,-0.000 C10.584,-0.000 11.698,-0.000 12.811,-0.000 C12.853,0.286 12.977,0.555 13.071,0.791 C13.071,0.835 13.071,0.879 13.071,0.923 C13.085,0.923 13.100,0.923 13.114,0.923 C13.114,0.967 13.114,1.010 13.114,1.054 C13.129,1.054 13.143,1.054 13.158,1.054 C13.158,1.098 13.158,1.142 13.158,1.186 C13.172,1.186 13.187,1.186 13.201,1.186 C13.201,1.230 13.201,1.274 13.201,1.318 C13.215,1.318 13.230,1.318 13.244,1.318 C13.244,1.347 13.244,1.377 13.244,1.406 C13.259,1.406 13.273,1.406 13.288,1.406 C13.317,1.538 13.346,1.669 13.375,1.801 C13.389,1.801 13.403,1.801 13.418,1.801 C13.418,1.831 13.418,1.860 13.418,1.889 C13.432,1.889 13.447,1.889 13.461,1.889 C13.461,1.933 13.461,1.977 13.461,2.021 C13.476,2.021 13.490,2.021 13.505,2.021 C13.519,2.094 13.534,2.167 13.548,2.241 C13.562,2.241 13.577,2.241 13.591,2.241 C13.591,2.270 13.591,2.299 13.591,2.328 C13.606,2.328 13.620,2.328 13.635,2.328 C13.635,2.372 13.635,2.416 13.635,2.460 C13.649,2.460 13.664,2.460 13.678,2.460 C13.678,2.490 13.678,2.519 13.678,2.548 C13.693,2.548 13.707,2.548 13.721,2.548 C13.721,2.592 13.721,2.636 13.721,2.680 C13.736,2.680 13.750,2.680 13.765,2.680 C13.779,2.738 13.794,2.797 13.808,2.856 C13.823,2.856 13.837,2.856 13.852,2.856 C13.852,2.900 13.852,2.944 13.852,2.987 C13.866,2.987 13.880,2.987 13.895,2.987 C13.909,3.046 13.924,3.105 13.938,3.163 C13.953,3.163 13.967,3.163 13.982,3.163 C13.982,3.207 13.982,3.251 13.982,3.295 C13.996,3.295 14.011,3.295 14.025,3.295 C14.039,3.354 14.054,3.412 14.068,3.471 C14.083,3.471 14.097,3.471 14.112,3.471 C14.112,3.515 14.112,3.559 14.112,3.603 C14.126,3.603 14.141,3.603 14.155,3.603 C14.155,3.632 14.155,3.661 14.155,3.690 C14.170,3.690 14.184,3.690 14.198,3.690 C14.213,3.749 14.227,3.808 14.242,3.866 C14.256,3.866 14.271,3.866 14.285,3.866 C14.285,3.895 14.285,3.925 14.285,3.954 C14.300,3.954 14.314,3.954 14.329,3.954 C14.329,3.983 14.329,4.013 14.329,4.042 C14.343,4.042 14.357,4.042 14.372,4.042 C14.372,4.071 14.372,4.100 14.372,4.130 C14.386,4.130 14.401,4.130 14.415,4.130 C14.415,4.159 14.415,4.188 14.415,4.218 C14.430,4.218 14.444,4.218 14.459,4.218 C14.459,4.247 14.459,4.276 14.459,4.305 C14.473,4.305 14.488,4.305 14.502,4.305 C14.516,4.379 14.531,4.452 14.545,4.525 C14.574,4.540 14.603,4.554 14.632,4.569 C14.632,4.598 14.632,4.628 14.632,4.657 C14.647,4.657 14.661,4.657 14.675,4.657 C14.675,4.686 14.675,4.715 14.675,4.745 C14.690,4.745 14.704,4.745 14.719,4.745 C14.719,4.774 14.719,4.803 14.719,4.833 C14.733,4.833 14.748,4.833 14.762,4.833 C14.863,5.067 14.965,5.301 15.066,5.536 C15.095,5.550 15.124,5.565 15.153,5.579 C15.153,5.609 15.153,5.638 15.153,5.667 C15.167,5.667 15.181,5.667 15.196,5.667 C15.196,5.697 15.196,5.726 15.196,5.755 C15.210,5.755 15.225,5.755 15.239,5.755 C15.239,5.785 15.239,5.814 15.239,5.843 C15.254,5.843 15.268,5.843 15.283,5.843 C15.283,5.872 15.283,5.902 15.283,5.931 C15.312,5.946 15.340,5.960 15.369,5.975 C15.398,6.063 15.427,6.151 15.456,6.238 C15.485,6.253 15.514,6.268 15.543,6.282 C15.557,6.341 15.572,6.400 15.586,6.458 C15.615,6.473 15.644,6.487 15.673,6.502 C15.687,6.561 15.702,6.619 15.716,6.678 C15.745,6.692 15.774,6.707 15.803,6.722 C15.817,6.780 15.832,6.839 15.846,6.897 C15.875,6.912 15.904,6.927 15.933,6.941 C15.933,6.971 15.933,7.000 15.933,7.029 C15.948,7.029 15.962,7.029 15.976,7.029 C15.991,7.073 16.005,7.117 16.020,7.161 C16.034,7.161 16.049,7.161 16.063,7.161 C16.082,6.949 16.174,6.794 16.237,6.634 C16.251,6.546 16.266,6.458 16.280,6.370 C16.295,6.370 16.309,6.370 16.323,6.370 C16.323,6.341 16.323,6.312 16.323,6.282 C16.338,6.282 16.352,6.282 16.367,6.282 C16.367,6.238 16.367,6.195 16.367,6.151 C16.381,6.151 16.396,6.151 16.410,6.151 C16.410,6.121 16.410,6.092 16.410,6.063 C16.425,6.063 16.439,6.063 16.454,6.063 C16.454,6.019 16.454,5.975 16.454,5.931 C16.468,5.931 16.482,5.931 16.497,5.931 C16.526,5.843 16.555,5.755 16.584,5.667 C16.598,5.667 16.613,5.667 16.627,5.667 C16.627,5.638 16.627,5.609 16.627,5.579 C16.641,5.579 16.656,5.579 16.670,5.579 C16.670,5.550 16.670,5.521 16.670,5.492 C16.685,5.492 16.699,5.492 16.714,5.492 C16.714,5.462 16.714,5.433 16.714,5.404 C16.728,5.404 16.743,5.404 16.757,5.404 C16.786,5.316 16.815,5.228 16.844,5.140 C16.873,5.126 16.902,5.111 16.931,5.096 C16.945,5.038 16.959,4.979 16.974,4.921 C16.988,4.921 17.003,4.921 17.017,4.921 C17.032,4.877 17.046,4.833 17.061,4.789 C17.090,4.774 17.118,4.759 17.147,4.745 C17.147,4.715 17.147,4.686 17.147,4.657 C17.176,4.642 17.205,4.628 17.234,4.613 C17.234,4.584 17.234,4.554 17.234,4.525 C17.277,4.496 17.321,4.467 17.364,4.437 C17.364,4.408 17.364,4.379 17.364,4.349 C17.408,4.320 17.451,4.291 17.494,4.262 C17.494,4.232 17.494,4.203 17.494,4.174 C17.581,4.100 17.668,4.027 17.755,3.954 C17.755,3.925 17.755,3.895 17.755,3.866 C17.870,3.764 17.986,3.661 18.101,3.559 C18.145,3.500 18.188,3.441 18.232,3.383 C18.260,3.383 18.289,3.383 18.318,3.383 C18.376,3.310 18.434,3.236 18.492,3.163 C18.521,3.163 18.550,3.163 18.578,3.163 C18.607,3.119 18.636,3.075 18.665,3.031 C18.694,3.031 18.723,3.031 18.752,3.031 C18.781,2.987 18.810,2.944 18.839,2.900 C18.868,2.900 18.897,2.900 18.925,2.900 C18.940,2.870 18.954,2.841 18.969,2.812 C18.998,2.812 19.027,2.812 19.056,2.812 C19.070,2.782 19.084,2.753 19.099,2.724 C19.128,2.724 19.157,2.724 19.186,2.724 C19.186,2.709 19.186,2.695 19.186,2.680 C19.215,2.680 19.243,2.680 19.272,2.680 C19.272,2.665 19.272,2.651 19.272,2.636 C19.301,2.636 19.330,2.636 19.359,2.636 C19.359,2.621 19.359,2.607 19.359,2.592 C19.388,2.592 19.417,2.592 19.446,2.592 C19.460,2.563 19.475,2.533 19.489,2.504 C19.518,2.504 19.547,2.504 19.576,2.504 C19.576,2.490 19.576,2.475 19.576,2.460 C19.634,2.446 19.692,2.431 19.749,2.416 C19.749,2.402 19.749,2.387 19.749,2.372 C20.140,2.241 20.530,2.109 20.920,1.977 C20.993,1.977 21.065,1.977 21.137,1.977 C21.553,1.849 22.051,1.845 22.612,1.845 C22.799,1.845 22.987,1.845 23.175,1.845 C23.175,1.860 23.175,1.874 23.175,1.889 C23.277,1.889 23.378,1.889 23.479,1.889 C23.479,1.904 23.479,1.918 23.479,1.933 C23.566,1.933 23.652,1.933 23.739,1.933 C23.739,1.948 23.739,1.962 23.739,1.977 C23.797,1.977 23.855,1.977 23.913,1.977 C23.913,1.992 23.913,2.006 23.913,2.021 C23.985,2.021 24.057,2.021 24.129,2.021 C24.129,2.036 24.129,2.050 24.129,2.065 C24.173,2.065 24.216,2.065 24.259,2.065 C24.259,2.079 24.259,2.094 24.259,2.109 C24.303,2.109 24.346,2.109 24.390,2.109 C24.390,2.123 24.390,2.138 24.390,2.153 C24.447,2.153 24.505,2.153 24.563,2.153 C24.563,2.167 24.563,2.182 24.563,2.197 C24.592,2.197 24.621,2.197 24.650,2.197 C24.650,2.211 24.650,2.226 24.650,2.241 C24.737,2.255 24.823,2.270 24.910,2.285 C24.910,2.299 24.910,2.314 24.910,2.328 C24.968,2.343 25.026,2.358 25.083,2.372 C25.083,2.387 25.083,2.402 25.083,2.416 C25.127,2.416 25.170,2.416 25.214,2.416 C25.214,2.431 25.214,2.446 25.214,2.460 C25.271,2.475 25.329,2.490 25.387,2.504 C25.387,2.519 25.387,2.533 25.387,2.548 C25.445,2.563 25.503,2.577 25.560,2.592 C25.575,2.621 25.589,2.651 25.604,2.680 C25.691,2.709 25.777,2.738 25.864,2.768 C25.879,2.797 25.893,2.826 25.907,2.856 C25.936,2.856 25.965,2.856 25.994,2.856 C25.994,2.870 25.994,2.885 25.994,2.900 C26.038,2.914 26.081,2.929 26.124,2.944 C26.139,2.973 26.153,3.002 26.168,3.031 C26.197,3.031 26.225,3.031 26.254,3.031 C26.269,3.061 26.283,3.090 26.298,3.119 C26.341,3.134 26.384,3.149 26.428,3.163 C26.471,3.222 26.515,3.280 26.558,3.339 C26.587,3.339 26.616,3.339 26.645,3.339 C26.717,3.427 26.789,3.515 26.861,3.603 C26.890,3.603 26.919,3.603 26.948,3.603 C27.020,3.690 27.093,3.778 27.165,3.866 C27.194,3.881 27.223,3.895 27.252,3.910 C27.252,3.939 27.252,3.969 27.252,3.998 C27.339,4.071 27.425,4.144 27.512,4.218 C27.512,4.247 27.512,4.276 27.512,4.305 C27.570,4.349 27.628,4.393 27.685,4.437 C27.700,4.481 27.714,4.525 27.729,4.569 C27.758,4.584 27.787,4.598 27.816,4.613 C27.816,4.642 27.816,4.672 27.816,4.701 C27.844,4.715 27.873,4.730 27.902,4.745 C27.917,4.789 27.931,4.833 27.946,4.877 C27.960,4.877 27.975,4.877 27.989,4.877 C27.989,4.906 27.989,4.935 27.989,4.964 C28.018,4.979 28.047,4.994 28.076,5.008 C28.105,5.096 28.134,5.184 28.162,5.272 C28.191,5.287 28.220,5.301 28.249,5.316 C28.264,5.374 28.278,5.433 28.293,5.492 C28.307,5.492 28.321,5.492 28.336,5.492 C28.350,5.550 28.365,5.609 28.379,5.667 C28.394,5.667 28.408,5.667 28.423,5.667 C28.423,5.711 28.423,5.755 28.423,5.799 C28.437,5.799 28.452,5.799 28.466,5.799 C28.481,5.858 28.495,5.916 28.509,5.975 C28.524,5.975 28.538,5.975 28.553,5.975 C28.553,6.019 28.553,6.063 28.553,6.107 C28.567,6.107 28.582,6.107 28.596,6.107 C28.611,6.195 28.625,6.282 28.640,6.370 C28.654,6.370 28.668,6.370 28.683,6.370 C28.683,6.400 28.683,6.429 28.683,6.458 C28.697,6.458 28.712,6.458 28.726,6.458 C28.755,6.634 28.784,6.810 28.813,6.985 C29.060,7.780 29.063,9.220 28.813,10.017 C28.813,10.090 28.813,10.163 28.813,10.236 C28.799,10.236 28.784,10.236 28.770,10.236 C28.755,10.339 28.741,10.441 28.726,10.544 C28.712,10.544 28.697,10.544 28.683,10.544 C28.683,10.588 28.683,10.632 28.683,10.676 C28.668,10.676 28.654,10.676 28.640,10.676 C28.640,10.720 28.640,10.764 28.640,10.808 C28.625,10.808 28.611,10.808 28.596,10.808 C28.596,10.851 28.596,10.895 28.596,10.939 C28.582,10.939 28.567,10.939 28.553,10.939 C28.553,10.969 28.553,10.998 28.553,11.027 C28.538,11.027 28.524,11.027 28.509,11.027 C28.509,11.071 28.509,11.115 28.509,11.159 C28.495,11.159 28.481,11.159 28.466,11.159 C28.466,11.188 28.466,11.218 28.466,11.247 C28.452,11.247 28.437,11.247 28.423,11.247 C28.423,11.291 28.423,11.335 28.423,11.379 C28.408,11.379 28.394,11.379 28.379,11.379 C28.350,11.467 28.321,11.554 28.293,11.642 C28.278,11.642 28.264,11.642 28.249,11.642 C28.235,11.701 28.220,11.759 28.206,11.818 C28.177,11.833 28.148,11.847 28.119,11.862 C28.090,11.950 28.061,12.038 28.032,12.126 C28.003,12.140 27.975,12.155 27.946,12.169 C27.946,12.199 27.946,12.228 27.946,12.257 C27.931,12.257 27.917,12.257 27.902,12.257 C27.888,12.301 27.873,12.345 27.859,12.389 C27.830,12.404 27.801,12.418 27.772,12.433 C27.772,12.462 27.772,12.492 27.772,12.521 C27.729,12.550 27.685,12.580 27.642,12.609 C27.642,12.638 27.642,12.667 27.642,12.697 C27.599,12.726 27.555,12.755 27.512,12.785 C27.512,12.814 27.512,12.843 27.512,12.872 C27.396,12.975 27.281,13.077 27.165,13.180 C27.165,13.209 27.165,13.238 27.165,13.268 C27.093,13.326 27.020,13.385 26.948,13.444 C26.934,13.473 26.919,13.502 26.905,13.531 C26.876,13.531 26.847,13.531 26.818,13.531 C26.746,13.619 26.674,13.707 26.601,13.795 C26.572,13.795 26.543,13.795 26.515,13.795 C26.471,13.854 26.428,13.912 26.384,13.971 C26.341,13.985 26.298,14.000 26.254,14.015 C26.240,14.044 26.225,14.073 26.211,14.103 C26.182,14.103 26.153,14.103 26.124,14.103 C26.110,14.132 26.095,14.161 26.081,14.190 C26.052,14.190 26.023,14.190 25.994,14.190 C25.980,14.220 25.965,14.249 25.951,14.278 C25.893,14.293 25.835,14.308 25.777,14.322 C25.763,14.351 25.748,14.381 25.734,14.410 C25.705,14.410 25.676,14.410 25.647,14.410 C25.647,14.425 25.647,14.439 25.647,14.454 C25.618,14.454 25.589,14.454 25.560,14.454 C25.560,14.469 25.560,14.483 25.560,14.498 C25.532,14.498 25.503,14.498 25.474,14.498 C25.474,14.513 25.474,14.527 25.474,14.542 C25.445,14.542 25.416,14.542 25.387,14.542 C25.387,14.556 25.387,14.571 25.387,14.586 C25.358,14.586 25.329,14.586 25.300,14.586 C25.300,14.600 25.300,14.615 25.300,14.630 C25.271,14.630 25.242,14.630 25.214,14.630 C25.214,14.644 25.214,14.659 25.214,14.674 C25.127,14.703 25.040,14.732 24.953,14.762 C24.953,14.776 24.953,14.791 24.953,14.805 C24.910,14.805 24.867,14.805 24.823,14.805 C24.823,14.820 24.823,14.835 24.823,14.849 C24.794,14.849 24.765,14.849 24.737,14.849 C24.737,14.864 24.737,14.879 24.737,14.893 C24.361,14.996 23.985,15.098 23.609,15.201 C23.378,15.215 23.146,15.230 22.915,15.245 C22.915,15.259 22.915,15.274 22.915,15.289 C22.690,15.352 22.038,15.291 21.874,15.245 C21.744,15.245 21.614,15.245 21.484,15.245 C21.391,15.236 21.172,15.180 21.094,15.157 C21.007,15.157 20.920,15.157 20.834,15.157 C20.371,15.025 19.908,14.893 19.446,14.762 C19.446,14.747 19.446,14.732 19.446,14.718 C19.374,14.703 19.301,14.688 19.229,14.674 C19.229,14.659 19.229,14.644 19.229,14.630 C19.171,14.615 19.113,14.600 19.056,14.586 C19.056,14.571 19.056,14.556 19.056,14.542 C19.012,14.542 18.969,14.542 18.925,14.542 C18.925,14.527 18.925,14.513 18.925,14.498 C18.839,14.469 18.752,14.439 18.665,14.410 C18.665,14.395 18.665,14.381 18.665,14.366 C18.636,14.366 18.607,14.366 18.578,14.366 C18.578,14.351 18.578,14.337 18.578,14.322 C18.521,14.308 18.463,14.293 18.405,14.278 C18.391,14.249 18.376,14.220 18.362,14.190 C18.333,14.190 18.304,14.190 18.275,14.190 C18.275,14.176 18.275,14.161 18.275,14.146 C18.246,14.146 18.217,14.146 18.188,14.146 C18.188,14.132 18.188,14.117 18.188,14.103 C18.159,14.103 18.130,14.103 18.101,14.103 C18.101,14.088 18.101,14.073 18.101,14.059 C18.042,14.019 18.025,14.028 17.928,14.015 C17.451,16.343 16.974,18.672 16.497,21.000 C15.355,21.000 14.213,21.000 13.071,21.000 C13.071,20.985 13.071,20.971 13.071,20.956 C13.085,20.956 13.100,20.956 13.114,20.956 C13.143,20.751 13.172,20.546 13.201,20.341 C13.215,20.341 13.230,20.341 13.244,20.341 C13.244,20.268 13.244,20.195 13.244,20.121 C13.361,19.748 13.430,19.262 13.548,18.891 C13.562,18.745 13.577,18.598 13.591,18.452 C13.854,17.628 13.938,16.640 14.198,15.816 C14.227,15.611 14.256,15.406 14.285,15.201 C14.300,15.201 14.314,15.201 14.329,15.201 C14.386,14.849 14.444,14.498 14.502,14.146 C14.638,13.718 14.714,13.170 14.849,12.741 C14.863,12.594 14.878,12.448 14.892,12.301 C14.907,12.301 14.921,12.301 14.936,12.301 C14.994,11.950 15.051,11.598 15.109,11.247 C15.003,11.174 15.008,11.093 14.936,10.983 C14.907,10.969 14.878,10.954 14.849,10.939 C14.849,10.910 14.849,10.881 14.849,10.851 C14.806,10.822 14.762,10.793 14.719,10.764 C14.719,10.734 14.719,10.705 14.719,10.676 C14.690,10.661 14.661,10.646 14.632,10.632 C14.618,10.588 14.603,10.544 14.589,10.500 C14.574,10.500 14.560,10.500 14.545,10.500 C14.545,10.471 14.545,10.441 14.545,10.412 C14.516,10.397 14.488,10.383 14.459,10.368 C14.459,10.339 14.459,10.310 14.459,10.280 C14.430,10.266 14.401,10.251 14.372,10.236 C14.357,10.192 14.343,10.149 14.329,10.105 C14.314,10.105 14.300,10.105 14.285,10.105 C14.271,10.046 14.256,9.987 14.242,9.929 C14.213,9.914 14.184,9.900 14.155,9.885 C14.155,9.856 14.155,9.826 14.155,9.797 C14.126,9.782 14.097,9.768 14.068,9.753 C14.054,9.695 14.039,9.636 14.025,9.577 C13.996,9.563 13.967,9.548 13.938,9.533 C13.938,9.504 13.938,9.475 13.938,9.446 C13.909,9.431 13.880,9.416 13.852,9.402 C13.852,9.372 13.852,9.343 13.852,9.314 C13.837,9.314 13.823,9.314 13.808,9.314 C13.808,9.285 13.808,9.255 13.808,9.226 C13.794,9.226 13.779,9.226 13.765,9.226 C13.765,9.197 13.765,9.167 13.765,9.138 C13.736,9.123 13.707,9.109 13.678,9.094 C13.664,9.036 13.649,8.977 13.635,8.918 C13.606,8.904 13.577,8.889 13.548,8.874 C13.548,8.845 13.548,8.816 13.548,8.787 C13.534,8.787 13.519,8.787 13.505,8.787 C13.505,8.757 13.505,8.728 13.505,8.699 C13.490,8.699 13.476,8.699 13.461,8.699 C13.461,8.669 13.461,8.640 13.461,8.611 C13.447,8.611 13.432,8.611 13.418,8.611 C13.418,8.582 13.418,8.552 13.418,8.523 C13.389,8.508 13.360,8.494 13.331,8.479 C13.331,8.450 13.331,8.420 13.331,8.391 C13.317,8.391 13.302,8.391 13.288,8.391 C13.288,8.362 13.288,8.333 13.288,8.303 C13.273,8.303 13.259,8.303 13.244,8.303 C13.244,8.274 13.244,8.245 13.244,8.215 C13.230,8.215 13.215,8.215 13.201,8.215 C13.201,8.186 13.201,8.157 13.201,8.128 C13.187,8.128 13.172,8.128 13.158,8.128 C13.158,8.098 13.158,8.069 13.158,8.040 C13.129,8.025 13.100,8.010 13.071,7.996 C13.071,7.967 13.071,7.937 13.071,7.908 C12.994,7.770 12.895,7.650 12.854,7.469 C12.840,7.469 12.825,7.469 12.811,7.469 C12.811,8.054 12.811,8.640 12.811,9.226 C12.709,9.348 12.779,9.787 12.724,9.973 C12.710,9.973 12.695,9.973 12.681,9.973 C12.666,10.119 12.652,10.266 12.637,10.412 C12.623,10.412 12.608,10.412 12.594,10.412 C12.594,10.471 12.594,10.529 12.594,10.588 C12.579,10.588 12.565,10.588 12.551,10.588 C12.551,10.632 12.551,10.676 12.551,10.720 C12.536,10.720 12.522,10.720 12.507,10.720 C12.507,10.764 12.507,10.808 12.507,10.851 C12.493,10.851 12.478,10.851 12.464,10.851 C12.464,10.895 12.464,10.939 12.464,10.983 C12.449,10.983 12.435,10.983 12.420,10.983 C12.406,11.071 12.392,11.159 12.377,11.247 C12.363,11.247 12.348,11.247 12.334,11.247 C12.334,11.276 12.334,11.305 12.334,11.335 C12.319,11.335 12.305,11.335 12.290,11.335 C12.290,11.379 12.290,11.423 12.290,11.467 C12.276,11.467 12.261,11.467 12.247,11.467 C12.218,11.554 12.189,11.642 12.160,11.730 C12.146,11.730 12.131,11.730 12.117,11.730 C12.117,11.759 12.117,11.789 12.117,11.818 C12.102,11.818 12.088,11.818 12.074,11.818 C12.045,11.906 12.016,11.994 11.987,12.082 C11.958,12.096 11.929,12.111 11.900,12.126 C11.886,12.184 11.871,12.243 11.857,12.301 C11.828,12.316 11.799,12.331 11.770,12.345 C11.755,12.404 11.741,12.462 11.727,12.521 C11.683,12.550 11.640,12.580 11.596,12.609 C11.596,12.638 11.596,12.667 11.596,12.697 C11.568,12.711 11.539,12.726 11.510,12.741 C11.510,12.770 11.510,12.799 11.510,12.828 C11.452,12.872 11.394,12.916 11.336,12.960 C11.336,12.990 11.336,13.019 11.336,13.048 C11.221,13.151 11.105,13.253 10.989,13.356 C10.989,13.385 10.989,13.414 10.989,13.444 C10.960,13.458 10.932,13.473 10.903,13.487 C10.903,13.502 10.903,13.517 10.903,13.531 C10.874,13.531 10.845,13.531 10.816,13.531 C10.715,13.649 10.613,13.766 10.512,13.883 C10.483,13.883 10.454,13.883 10.426,13.883 C10.382,13.941 10.339,14.000 10.295,14.059 C10.252,14.073 10.209,14.088 10.165,14.103 C10.151,14.132 10.136,14.161 10.122,14.190 C10.093,14.190 10.064,14.190 10.035,14.190 C10.021,14.220 10.006,14.249 9.992,14.278 C9.949,14.293 9.905,14.308 9.862,14.322 C9.862,14.337 9.862,14.351 9.862,14.366 C9.833,14.366 9.804,14.366 9.775,14.366 C9.761,14.395 9.746,14.425 9.732,14.454 C9.674,14.469 9.616,14.483 9.558,14.498 C9.544,14.527 9.529,14.556 9.515,14.586 C9.457,14.600 9.399,14.615 9.341,14.630 C9.341,14.644 9.341,14.659 9.341,14.674 C9.284,14.688 9.226,14.703 9.168,14.718 C9.168,14.732 9.168,14.747 9.168,14.762 C9.125,14.762 9.081,14.762 9.038,14.762 C9.038,14.776 9.038,14.791 9.038,14.805 C9.009,14.805 8.980,14.805 8.951,14.805 C8.951,14.820 8.951,14.835 8.951,14.849 C8.893,14.864 8.835,14.879 8.778,14.893 C8.778,14.908 8.778,14.923 8.778,14.937 C8.431,15.040 8.084,15.142 7.737,15.245 C7.665,15.245 7.592,15.245 7.520,15.245 C7.520,15.259 7.520,15.274 7.520,15.289 C7.433,15.289 7.347,15.289 7.260,15.289 C7.260,15.303 7.260,15.318 7.260,15.333 C7.245,15.333 7.231,15.333 7.216,15.333 C7.072,15.333 6.927,15.333 6.783,15.333 C6.783,15.347 6.783,15.362 6.783,15.377 C6.525,15.449 5.708,15.342 5.525,15.289 C5.294,15.259 5.063,15.230 4.831,15.201 C4.831,15.186 4.831,15.172 4.831,15.157 C4.730,15.142 4.629,15.128 4.528,15.113 C4.528,15.098 4.528,15.084 4.528,15.069 C4.484,15.069 4.441,15.069 4.398,15.069 C4.398,15.054 4.398,15.040 4.398,15.025 C4.354,15.025 4.311,15.025 4.268,15.025 C4.268,15.010 4.268,14.996 4.268,14.981 C4.224,14.981 4.181,14.981 4.137,14.981 C4.137,14.967 4.137,14.952 4.137,14.937 C4.109,14.937 4.080,14.937 4.051,14.937 C4.051,14.923 4.051,14.908 4.051,14.893 C4.007,14.893 3.964,14.893 3.921,14.893 C3.921,14.879 3.921,14.864 3.921,14.849 C3.834,14.820 3.747,14.791 3.660,14.762 C3.660,14.747 3.660,14.732 3.660,14.718 C3.631,14.718 3.603,14.718 3.574,14.718 C3.574,14.703 3.574,14.688 3.574,14.674 C3.545,14.674 3.516,14.674 3.487,14.674 C3.487,14.659 3.487,14.644 3.487,14.630 C3.458,14.630 3.429,14.630 3.400,14.630 C3.400,14.615 3.400,14.600 3.400,14.586 C3.371,14.586 3.342,14.586 3.313,14.586 C3.313,14.571 3.313,14.556 3.313,14.542 C3.285,14.542 3.256,14.542 3.227,14.542 C3.227,14.527 3.227,14.513 3.227,14.498 C3.198,14.498 3.169,14.498 3.140,14.498 C3.140,14.483 3.140,14.469 3.140,14.454 C3.097,14.439 3.053,14.425 3.010,14.410 C2.995,14.381 2.981,14.351 2.967,14.322 C2.909,14.308 2.851,14.293 2.793,14.278 C2.779,14.249 2.764,14.220 2.750,14.190 C2.706,14.176 2.663,14.161 2.620,14.146 C2.591,14.103 2.562,14.059 2.533,14.015 C2.504,14.015 2.475,14.015 2.446,14.015 C2.403,13.956 2.359,13.897 2.316,13.839 C2.287,13.839 2.258,13.839 2.229,13.839 C2.085,13.678 1.940,13.517 1.796,13.356 C1.709,13.282 1.622,13.209 1.535,13.136 C1.535,13.107 1.535,13.077 1.535,13.048 C1.478,13.004 1.420,12.960 1.362,12.916 C1.362,12.887 1.362,12.858 1.362,12.828 C1.319,12.799 1.275,12.770 1.232,12.741 C1.232,12.711 1.232,12.682 1.232,12.653 C1.189,12.623 1.145,12.594 1.102,12.565 C1.087,12.506 1.073,12.448 1.058,12.389 C1.030,12.374 1.001,12.360 0.972,12.345 C0.957,12.301 0.943,12.257 0.928,12.213 C0.914,12.213 0.899,12.213 0.885,12.213 C0.856,12.126 0.827,12.038 0.798,11.950 C0.769,11.935 0.740,11.920 0.711,11.906 C0.711,11.877 0.711,11.847 0.711,11.818 C0.697,11.818 0.683,11.818 0.668,11.818 C0.668,11.789 0.668,11.759 0.668,11.730 C0.654,11.730 0.639,11.730 0.625,11.730 C0.625,11.686 0.625,11.642 0.625,11.598 C0.610,11.598 0.596,11.598 0.581,11.598 C0.581,11.569 0.581,11.540 0.581,11.510 C0.567,11.510 0.552,11.510 0.538,11.510 C0.524,11.452 0.509,11.393 0.495,11.335 C0.480,11.335 0.466,11.335 0.451,11.335 C0.437,11.247 0.422,11.159 0.408,11.071 C0.393,11.071 0.379,11.071 0.365,11.071 C0.365,11.027 0.365,10.983 0.365,10.939 C0.350,10.939 0.336,10.939 0.321,10.939 C0.321,10.895 0.321,10.851 0.321,10.808 C0.307,10.808 0.292,10.808 0.278,10.808 C0.278,10.764 0.278,10.720 0.278,10.676 C0.263,10.676 0.249,10.676 0.234,10.676 C0.234,10.632 0.234,10.588 0.234,10.544 C0.220,10.544 0.206,10.544 0.191,10.544 C0.191,10.471 0.191,10.397 0.191,10.324 C-0.080,9.460 0.018,8.108 0.018,6.985 C0.018,4.657 0.018,2.328 0.018,-0.000 ZM18.795,10.412 C18.908,10.443 18.937,10.481 19.012,10.544 C19.012,10.559 19.012,10.573 19.012,10.588 C19.056,10.603 19.099,10.617 19.142,10.632 C19.157,10.661 19.171,10.690 19.186,10.720 C19.215,10.720 19.243,10.720 19.272,10.720 C19.287,10.749 19.301,10.778 19.316,10.808 C19.359,10.822 19.402,10.837 19.446,10.851 C19.446,10.866 19.446,10.881 19.446,10.895 C19.504,10.910 19.561,10.925 19.619,10.939 C19.634,10.969 19.648,10.998 19.663,11.027 C19.692,11.027 19.720,11.027 19.749,11.027 C19.764,11.056 19.778,11.086 19.793,11.115 C19.851,11.130 19.908,11.144 19.966,11.159 C19.966,11.174 19.966,11.188 19.966,11.203 C19.995,11.203 20.024,11.203 20.053,11.203 C20.053,11.218 20.053,11.232 20.053,11.247 C20.082,11.247 20.111,11.247 20.140,11.247 C20.140,11.262 20.140,11.276 20.140,11.291 C20.169,11.291 20.198,11.291 20.226,11.291 C20.226,11.305 20.226,11.320 20.226,11.335 C20.299,11.349 20.371,11.364 20.443,11.379 C20.443,11.393 20.443,11.408 20.443,11.423 C20.501,11.437 20.559,11.452 20.617,11.467 C20.617,11.481 20.617,11.496 20.617,11.510 C20.660,11.510 20.703,11.510 20.747,11.510 C20.747,11.525 20.747,11.540 20.747,11.554 C20.790,11.554 20.834,11.554 20.877,11.554 C20.877,11.569 20.877,11.584 20.877,11.598 C20.920,11.598 20.964,11.598 21.007,11.598 C21.007,11.613 21.007,11.628 21.007,11.642 C21.065,11.642 21.123,11.642 21.180,11.642 C21.180,11.657 21.180,11.672 21.180,11.686 C21.238,11.686 21.296,11.686 21.354,11.686 C21.354,11.701 21.354,11.715 21.354,11.730 C21.412,11.730 21.470,11.730 21.527,11.730 C21.527,11.745 21.527,11.759 21.527,11.774 C21.759,11.789 21.990,11.803 22.221,11.818 C22.221,11.833 22.221,11.847 22.221,11.862 C22.352,11.899 22.546,11.837 22.612,11.818 C22.799,11.803 22.987,11.789 23.175,11.774 C23.175,11.759 23.175,11.745 23.175,11.730 C23.219,11.730 23.262,11.730 23.305,11.730 C23.305,11.715 23.305,11.701 23.305,11.686 C23.349,11.686 23.392,11.686 23.436,11.686 C23.436,11.672 23.436,11.657 23.436,11.642 C23.479,11.642 23.522,11.642 23.566,11.642 C23.566,11.628 23.566,11.613 23.566,11.598 C23.595,11.598 23.623,11.598 23.652,11.598 C23.652,11.584 23.652,11.569 23.652,11.554 C23.696,11.554 23.739,11.554 23.782,11.554 C23.782,11.540 23.782,11.525 23.782,11.510 C23.811,11.510 23.840,11.510 23.869,11.510 C23.869,11.496 23.869,11.481 23.869,11.467 C23.898,11.467 23.927,11.467 23.956,11.467 C23.970,11.437 23.985,11.408 23.999,11.379 C24.057,11.364 24.115,11.349 24.173,11.335 C24.202,11.291 24.231,11.247 24.259,11.203 C24.288,11.203 24.317,11.203 24.346,11.203 C24.375,11.159 24.404,11.115 24.433,11.071 C24.462,11.071 24.491,11.071 24.520,11.071 C24.549,11.027 24.578,10.983 24.606,10.939 C24.722,10.837 24.838,10.734 24.953,10.632 C24.953,10.603 24.953,10.573 24.953,10.544 C25.011,10.500 25.069,10.456 25.127,10.412 C25.127,10.383 25.127,10.354 25.127,10.324 C25.156,10.310 25.185,10.295 25.214,10.280 C25.228,10.222 25.242,10.163 25.257,10.105 C25.638,9.494 25.947,8.591 25.647,7.688 C25.647,7.630 25.647,7.571 25.647,7.513 C25.546,7.278 25.445,7.044 25.344,6.810 C25.315,6.795 25.286,6.780 25.257,6.766 C25.257,6.736 25.257,6.707 25.257,6.678 C25.228,6.663 25.199,6.649 25.170,6.634 C25.170,6.605 25.170,6.575 25.170,6.546 C25.127,6.517 25.083,6.487 25.040,6.458 C25.040,6.429 25.040,6.400 25.040,6.370 C24.982,6.326 24.924,6.282 24.867,6.238 C24.780,6.136 24.693,6.033 24.606,5.931 C24.578,5.931 24.549,5.931 24.520,5.931 C24.491,5.887 24.462,5.843 24.433,5.799 C24.404,5.799 24.375,5.799 24.346,5.799 C24.332,5.770 24.317,5.741 24.303,5.711 C24.274,5.711 24.245,5.711 24.216,5.711 C24.202,5.682 24.187,5.653 24.173,5.623 C24.144,5.623 24.115,5.623 24.086,5.623 C24.086,5.609 24.086,5.594 24.086,5.579 C24.057,5.579 24.028,5.579 23.999,5.579 C23.999,5.565 23.999,5.550 23.999,5.536 C23.970,5.536 23.941,5.536 23.913,5.536 C23.913,5.521 23.913,5.506 23.913,5.492 C23.884,5.492 23.855,5.492 23.826,5.492 C23.826,5.477 23.826,5.462 23.826,5.448 C23.797,5.448 23.768,5.448 23.739,5.448 C23.739,5.433 23.739,5.418 23.739,5.404 C23.696,5.404 23.652,5.404 23.609,5.404 C23.609,5.389 23.609,5.374 23.609,5.360 C23.566,5.360 23.522,5.360 23.479,5.360 C23.479,5.345 23.479,5.331 23.479,5.316 C23.436,5.316 23.392,5.316 23.349,5.316 C23.349,5.301 23.349,5.287 23.349,5.272 C23.291,5.272 23.233,5.272 23.175,5.272 C23.175,5.257 23.175,5.243 23.175,5.228 C23.089,5.228 23.002,5.228 22.915,5.228 C22.915,5.213 22.915,5.199 22.915,5.184 C22.625,5.101 22.061,5.215 21.874,5.272 C21.802,5.272 21.730,5.272 21.658,5.272 C21.658,5.287 21.658,5.301 21.658,5.316 C21.571,5.331 21.484,5.345 21.397,5.360 C21.397,5.374 21.397,5.389 21.397,5.404 C21.311,5.433 21.224,5.462 21.137,5.492 C21.137,5.506 21.137,5.521 21.137,5.536 C21.108,5.536 21.079,5.536 21.050,5.536 C21.050,5.550 21.050,5.565 21.050,5.579 C20.993,5.594 20.935,5.609 20.877,5.623 C20.862,5.653 20.848,5.682 20.834,5.711 C20.805,5.711 20.776,5.711 20.747,5.711 C20.703,5.770 20.660,5.828 20.617,5.887 C20.588,5.887 20.559,5.887 20.530,5.887 C20.516,5.916 20.501,5.946 20.487,5.975 C20.414,6.033 20.342,6.092 20.270,6.151 C20.270,6.180 20.270,6.209 20.270,6.238 C20.212,6.282 20.154,6.326 20.096,6.370 C20.082,6.414 20.067,6.458 20.053,6.502 C20.024,6.517 19.995,6.531 19.966,6.546 C19.952,6.605 19.937,6.663 19.923,6.722 C19.894,6.736 19.865,6.751 19.836,6.766 C19.807,6.854 19.778,6.941 19.749,7.029 C19.735,7.029 19.720,7.029 19.706,7.029 C19.706,7.059 19.706,7.088 19.706,7.117 C19.692,7.117 19.677,7.117 19.663,7.117 C19.663,7.146 19.663,7.176 19.663,7.205 C19.648,7.205 19.634,7.205 19.619,7.205 C19.590,7.293 19.561,7.381 19.533,7.469 C19.518,7.469 19.504,7.469 19.489,7.469 C19.475,7.556 19.460,7.644 19.446,7.732 C19.431,7.732 19.417,7.732 19.402,7.732 C19.402,7.776 19.402,7.820 19.402,7.864 C19.388,7.864 19.374,7.864 19.359,7.864 C19.359,7.908 19.359,7.952 19.359,7.996 C19.345,7.996 19.330,7.996 19.316,7.996 C19.316,8.040 19.316,8.084 19.316,8.128 C19.301,8.128 19.287,8.128 19.272,8.128 C19.272,8.186 19.272,8.245 19.272,8.303 C19.258,8.303 19.243,8.303 19.229,8.303 C19.229,8.362 19.229,8.421 19.229,8.479 C19.215,8.479 19.200,8.479 19.186,8.479 C19.186,8.538 19.186,8.596 19.186,8.655 C19.171,8.655 19.157,8.655 19.142,8.655 C19.142,8.728 19.142,8.801 19.142,8.874 C19.128,8.874 19.113,8.874 19.099,8.874 C19.099,8.977 19.099,9.080 19.099,9.182 C19.084,9.182 19.070,9.182 19.056,9.182 C18.969,9.592 18.882,10.002 18.795,10.412 Z"/>
</svg>